<?xml version="1.0" standalone="no"?>
<!DOCTYPE svg PUBLIC "-//W3C//DTD SVG 1.1//EN" "http://www.w3.org/Graphics/SVG/1.1/DTD/svg11.dtd" >
<svg>
<metadata>
Created by FontForge 20090914 at Tue Oct  4 10:37:10 2016
 By www-data
</metadata>
<defs>
<font id="ParleyRegular" horiz-adv-x="440" >
  <font-face 
    font-family="Parley Regular"
    font-weight="400"
    font-stretch="normal"
    units-per-em="1000"
    panose-1="0 0 0 0 0 0 0 0 0 0"
    ascent="750"
    descent="-250"
    x-height="495.999"
    cap-height="497"
    bbox="2.99805 -1.00391 494.501 503.25"
    underline-thickness="50"
    underline-position="-50"
    unicode-range="U+000D-U+007A"
  />
<missing-glyph horiz-adv-x="500" 
 />
    <glyph glyph-name=".notdef" horiz-adv-x="500" 
 />
    <glyph glyph-name="NULL" horiz-adv-x="0" 
 />
    <glyph glyph-name="NULL" horiz-adv-x="0" 
 />
    <glyph glyph-name="nonmarkingreturn" unicode="&#xd;" horiz-adv-x="500" 
 />
    <glyph glyph-name="space" unicode=" " horiz-adv-x="500" 
 />
    <glyph glyph-name="A" unicode="A" horiz-adv-x="437" 
d="M415 15c1.33301 -3.33301 0.333008 -8.00098 -3 -14.001c-4 -2 -8.66699 -2 -14 0l-292 164l-63 -159c0 -4.66699 -3 -7 -9 -7c-1.33301 0 -3 0.666992 -5 2c-6.66699 2.66699 -9 7.33398 -7 14.001l29 73.5l23 58l22 56.5l26 67.5l35.5 91.5l49.5 130
c1.33301 1.33301 3 2.83301 5 4.5s4 2.5 6 2.5c2.66699 0 5 -0.833008 7 -2.5s3.66699 -3.16699 5 -4.5zM382 35.999l-164 418l-105 -266z" />
    <glyph glyph-name="B" unicode="B" horiz-adv-x="436" 
d="M394 137c0 -17.333 -2.99805 -33.832 -8.99805 -49.499s-14.167 -29.5 -24.5 -41.5s-22.5 -22.167 -36.5 -30.5s-29.333 -13.5 -46 -15.5h-5h-4h-10h-4h-188c-8 0 -12 4 -12 12v475c0 8 4 12 12 12h188h2c18 0 34.667 -3.5 50 -10.5s28.666 -16.333 39.999 -28
s20.333 -25.334 27 -41.001s10 -32.5 10 -50.5c0 -24.667 -6 -46.5 -18 -65.5s-28.667 -33.167 -50 -42.5v-3c23.333 -10 42.166 -26 56.499 -48s21.5 -46.333 21.5 -73zM361.002 369.001c0 17.333 -3.83203 33.501 -11.499 48.501s-17.834 27.167 -30.501 36.5l-99 -184h39
c30 1.33301 54.5 11.166 73.5 29.499s28.5 41.5 28.5 69.5zM78.0029 59.002l102 188h-102v-188zM78.0029 475.002v-204.999h116l103 196c-6 3.33301 -12.5 5.66602 -19.5 6.99902s-14.5 2 -22.5 2h-177zM269.003 23.0029c14 1.33301 27.167 5.16992 39.5 11.5029
s23 14.666 32 24.999s16.167 22.166 21.5 35.499s8 27.333 8 42c0 15.333 -2.83301 29.666 -8.5 42.999s-13.5 25 -23.5 35s-21.833 17.833 -35.5 23.5s-28.167 8.5 -43.5 8.5h-4h-47l-122 -224h183z" />
    <glyph glyph-name="C" unicode="C" horiz-adv-x="499" 
d="M460 92c6 -6 6 -11.334 0 -16.001c-48.667 -50.667 -107.667 -76 -177 -76c-34 0 -66.167 6.5 -96.5 19.5s-56.666 30.833 -78.999 53.5s-40 49.167 -53 79.5s-19.5 62.833 -19.5 97.5c0 34 6.5 66.333 19.5 97s30.667 57.334 53 80.001s48.666 40.667 78.999 54
s62.5 20 96.5 20c56 0 107.333 -18.333 154 -55c2 -2.66699 3.5 -5.5 4.5 -8.5s0.166992 -5.5 -2.5 -7.5c-4.66699 -4.66699 -10.334 -5.66699 -17.001 -3c-37.333 30 -79.666 46.667 -126.999 50v-454c57.333 3.33301 107 26.333 149 69c4.66699 6 10 6 16 0zM58 249.999
c0 -30 5.5 -58.501 16.5 -85.501s26.167 -50.667 45.5 -71s42 -36.666 68 -48.999s53.667 -19.5 83 -21.5v454c-29.333 -2 -57 -9.33301 -83 -22s-48.667 -29.167 -68 -49.5s-34.5 -43.833 -45.5 -70.5s-16.5 -55 -16.5 -85z" />
    <glyph glyph-name="D" unicode="D" horiz-adv-x="395" 
d="M361 248c0 -54 -10 -98.8301 -30 -134.497s-44 -62.834 -72 -81.501c-1.33301 0 -3 -0.666992 -5 -2c-14.667 -9.33301 -30.167 -16.333 -46.5 -21s-32.166 -7 -47.499 -7h-94c-7.33301 0 -11 3.66699 -11 11v472v2c0 2 0.333008 3 1 3h1v2h3v2h2h2l2 2h101
c24 0 47.667 -5.33301 71 -16s43.666 -26.667 60.999 -48c15.333 -16.667 29.5 -39.834 42.5 -69.501s19.5 -67.834 19.5 -114.501zM160 25.0029c25.333 0 50.667 7 76 21l-158 381v-402h82zM254.001 60.0029c23.333 17.333 43.333 41.332 60 71.999s25 69.334 25 116.001
c0 43.333 -6.16699 78.5 -18.5 105.5s-24.833 47.5 -37.5 61.5c-16.667 18.667 -35 33.167 -55 43.5s-40.333 15.5 -61 15.5h-84z" />
    <glyph glyph-name="E" unicode="E" horiz-adv-x="420" 
d="M399 24c8 0 12 -3.66699 12 -11c0 -8 -4 -12 -12 -12h-332c-8 0 -12 4 -12 12v472v4c0 8 4 12 12 12h332c2.66699 0 5 -1 7 -3s3.66699 -4 5 -6c0 -2.66699 -0.166992 -5 -0.5 -7s-1.83301 -4 -4.5 -6l-209 -155l45 -66c3.33301 -4.66699 4 -8.66699 2 -12
c-2.66699 -4.66699 -7 -7 -13 -7h-153v-215h321zM78 265l88 63l-88 130v-193zM177 310l-63 -47h97zM364 477h-269l90 -134z" />
    <glyph glyph-name="F" unicode="F" horiz-adv-x="411" 
d="M411 490c0 -2.66699 -0.166992 -5 -0.5 -7s-1.83301 -3.66699 -4.5 -5l-210 -152l46 -70c1.33301 -2 2 -4 2 -6v-5c-2 -4.66699 -5.66699 -7 -11 -7h-155v-227c0 -7.33301 -4 -11 -12 -11c-2 0 -4.33301 1 -7 3s-4 4.66699 -4 8v236v5v231h2c-1.33301 1.33301 -2 3 -2 5
c0 3.33301 1.33301 6 4 8s5 3 7 3h334c2 0 4 -1 6 -3s3.66699 -4 5 -6zM78 273l86 59l-86 126v-185zM175 314l-72 -53h109zM363 476h-269l88 -129z" />
    <glyph glyph-name="G" unicode="G" horiz-adv-x="501" 
d="M453 208c2 0 4.33203 -1.16602 6.99902 -3.49902s4 -5.16602 4 -8.49902v-113c0 -2.66699 -1.66699 -5.66699 -5 -9c-22.667 -24 -49.334 -42.167 -80.001 -54.5s-62.667 -18.5 -96 -18.5c-34 0 -66 6.5 -96 19.5s-56.333 30.667 -79 53s-40.5 48.5 -53.5 78.5
s-19.5 62.333 -19.5 97c0 28.667 4.66699 56 14 82s22.333 49.667 39 71v3h2c22 28.667 49.833 51.5 83.5 68.5s70.167 25.5 109.5 25.5c58 0 109 -17.333 153 -52c4.66699 -4.66699 5.66699 -10.334 3 -17.001c-6 -6 -11.333 -6.66699 -16 -2c-42 32 -88.667 48 -140 48
c-33.333 0 -64.666 -6.83301 -93.999 -20.5s-54.666 -32.834 -75.999 -57.501l218 -190h122zM355.999 184.001l85 -71v71h-85zM57.999 249.001c0 -31.333 5.83203 -60.499 17.499 -87.499s27.834 -50.833 48.501 -71.5s44.5 -36.834 71.5 -48.501s56.167 -17.5 87.5 -17.5
c28.667 0 56.167 5.16699 82.5 15.5s49.833 25.833 70.5 46.5l-337 294c-12.667 -18.667 -22.667 -39.167 -30 -61.5s-11 -45.5 -11 -69.5z" />
    <glyph glyph-name="H" unicode="H" horiz-adv-x="503" 
d="M435 497c3.33301 0 6.16602 -1.1709 8.49902 -3.50391s3.5 -5.16602 3.5 -8.49902v-473c0 -3.33301 -1.16699 -6.16602 -3.5 -8.49902s-5.16602 -3.5 -8.49902 -3.5c-8 0 -12 4 -12 12v341l-345 -220v-121c0 -3.33301 -1.33301 -6.16602 -4 -8.49902s-5 -3.5 -7 -3.5
c-8 0 -12 4 -12 12v473c0 8 4 12 12 12c2 0 4.33301 -1.16699 7 -3.5s4 -5.16602 4 -8.49902v-325l345 220v105c0 8 4 12 12 12z" />
    <glyph glyph-name="I" unicode="I" horiz-adv-x="151" 
d="M136 255c3.33301 0 6 -1.33301 8 -4s3 -5 3 -7c0 -7.33301 -3.66699 -11 -11 -11h-51v-221c0 -2 -1 -4.33301 -3 -7s-4.66699 -4 -8 -4s-6 1.33301 -8 4s-3 5 -3 7v221h-46c-2 0 -4.33301 1 -7 3s-4 4.66699 -4 8c0 2 1.33301 4.33301 4 7s5 4 7 4h46v21h-37
c-7.33301 0 -11 4 -11 12c0 7.33301 3.66699 11 11 11h37v186c0 8 3.66699 12 11 12s11 -4 11 -12v-186h41c8 0 12 -3.66699 12 -11c0 -8 -4 -12 -12 -12h-41v-21h51v0z" />
    <glyph glyph-name="J" unicode="J" horiz-adv-x="311" 
d="M254 8l-0.000976562 -1.99902c-0.666992 0 -1.33398 -0.333008 -2.00098 -1h-1v-1l-2 -3h-2l-3 -2h-2h-227h-3c-1.33301 0 -2 0.333008 -2 1v1h-2l-3 3v2h-2v2v3v97c0 3.33301 1.66699 6.66602 5 9.99902c2.66699 2.66699 6.33398 2.66699 11.001 0l68 -28l143 124v275
c0 3.33301 1.33301 6 4 8s5.33398 3 8.00098 3c8 0 12 -3.66699 12 -11v-478v-3zM109.999 80.001l120 -50v155zM44.999 22.001h139l-93 39zM25.999 37.001l42 36l-42 17v-53z" />
    <glyph glyph-name="K" unicode="K" horiz-adv-x="352" 
d="M308 19c2.66699 -6.66699 1.66406 -12.334 -3.00293 -17.001c-1.33301 0 -2.5 -0.333008 -3.5 -1s-2.16699 -1 -3.5 -1c-4 0 -7 1.66699 -9 5l-164 208l-47 -69v-132c0 -2.66699 -1 -5.33398 -3 -8.00098s-4.66699 -4 -8 -4s-6.16602 1.33301 -8.49902 4
s-3.5 5.33398 -3.5 8.00098v479c0 8 4 12 12 12c7.33301 0 11 -4 11 -12v-306l211 313c1.33301 2.66699 3.33301 4.33398 6 5.00098s5.33398 0 8.00098 -2c3.33301 -1.33301 5.33301 -3.5 6 -6.5s0.333984 -5.5 -0.999023 -7.5l-170 -253z" />
    <glyph glyph-name="L" unicode="L" horiz-adv-x="307" 
d="M302 21c2.66699 -1.33301 4.16699 -3.33203 4.5 -5.99902s0.5 -5.33398 0.5 -8.00098c-2.66699 -4.66699 -6.66699 -7 -12 -7h-228c-8 0 -12 4 -12 12v173v305c0 8 4 12 12 12c7.33301 0 11 -4 11 -12v-298zM260 23.001l-182 139v-139h182z" />
    <glyph glyph-name="M" unicode="M" horiz-adv-x="506" 
d="M443 499c4.66699 -2 7 -5.66699 7 -11v-478c0 -2 -1 -4.33301 -3 -7s-4.66699 -4 -8 -4c-4 0 -7 1.33301 -9 4s-3 5 -3 7v154l-349 300v-454c0 -2 -1.16699 -4.33301 -3.5 -7s-5.16602 -4 -8.49902 -4s-6 1.33301 -8 4s-3 5 -3 7v478c0 5.33301 2.33301 9 7 11
c5.33301 2.66699 9 2 11 -2l180 -153l178 153c1.33301 2 3.16602 3.16699 5.49902 3.5s4.5 -0.166992 6.5 -1.5zM427 193v271l-157 -137z" />
    <glyph glyph-name="N" unicode="N" horiz-adv-x="499" 
d="M432 497c7.33301 0 11 -3.66699 11 -11v-476c0 -5.33301 -2.33301 -9 -7 -11h-4c-3.33301 0 -6.33301 1.33301 -9 4l-157 205l-191 -200c-1.33301 -1.33301 -2.83301 -2 -4.5 -2h-4.5h-4c-4.66699 2 -7 5.66699 -7 11v469v2v2h2v3c1.33301 0 2 0.666992 2 2h3v2h2h2h2
c1.33301 0 2 -0.666992 2 -2h3v-2h2l346 -449v442c0 7.33301 3.66699 11 11 11zM253 225l-176 227v-408z" />
    <glyph glyph-name="O" unicode="O" horiz-adv-x="482" 
d="M241 427c30 0 57.833 -5.5 83.5 -16.5s48.167 -26.167 67.5 -45.5s34.5 -41.833 45.5 -67.5s16.5 -53.5 16.5 -83.5c0 -29.333 -5.5 -56.833 -16.5 -82.5s-26.167 -48.167 -45.5 -67.5s-41.833 -34.666 -67.5 -45.999s-53.5 -17 -83.5 -17
c-29.333 0 -56.833 5.66699 -82.5 17s-48.167 26.666 -67.5 45.999s-34.666 41.833 -45.999 67.5s-17 53.167 -17 82.5c0 30 5.66699 57.833 17 83.5s26.666 48.167 45.999 67.5s41.833 34.5 67.5 45.5s53.167 16.5 82.5 16.5zM241 25c26.667 0 51.667 5 75 15
s43.5 23.5 60.5 40.5s30.333 37 40 60s14.5 47.5 14.5 73.5c0 26.667 -4.83301 51.667 -14.5 75s-23 43.5 -40 60.5s-37.167 30.333 -60.5 40s-48.333 14.5 -75 14.5c-26 0 -50.5 -4.83301 -73.5 -14.5s-43 -23 -60 -40s-30.5 -37.167 -40.5 -60.5s-15 -48.333 -15 -75
c0 -26 5 -50.5 15 -73.5s23.5 -43 40.5 -60s37 -30.5 60 -40.5s47.5 -15 73.5 -15zM135 474c-4 0 -7.00098 1.16699 -9.00098 3.5s-3 4.83301 -3 7.5c0 8 4 12 12 12h215c8 0 12 -4 12 -12c0 -2.66699 -1.16699 -5.16699 -3.5 -7.5s-5.16602 -3.5 -8.49902 -3.5h-215z" />
    <glyph glyph-name="P" unicode="P" horiz-adv-x="322" 
d="M290 446c8 -10.667 14.666 -22.6689 19.999 -36.002s8 -27.666 8 -42.999c0 -17.333 -3.33301 -33.333 -10 -48s-15.667 -27.167 -27 -37.5s-25 -18.5 -41 -24.5s-33 -9 -51 -9h-111v-235c0 -8 -3.66699 -12 -11 -12c-8 0 -12 4 -12 12v472c0 7.33301 4 11 12 11h122
c19.333 0 37.833 -4.16699 55.5 -12.5s32.834 -20.166 45.501 -35.499v-2zM77.999 472.998l-0.000976562 -189l187 157c-21.333 21.333 -46.666 32 -75.999 32h-111zM188.998 270.998c30 0 55.167 8.83203 75.5 26.499s30.5 40.834 30.5 69.501
c0 10.667 -1.5 20.667 -4.5 30s-6.83301 18 -11.5 26l-180 -152h90z" />
    <glyph glyph-name="Q" unicode="Q" horiz-adv-x="537" 
d="M491 17c4.66699 -4.66699 4.66895 -10 0.00195312 -16c-1.33301 0 -2.66602 -0.333008 -3.99902 -1s-3 -1 -5 -1c-2.66699 0 -5 1.66699 -7 5l-71 79c-20 -15.333 -42 -27.333 -66 -36s-48.667 -13 -74 -13c-32.667 0 -63.167 6.16699 -91.5 18.5s-53 29 -74 50
s-37.5 45.5 -49.5 73.5s-18 58 -18 90c0 34 6.66699 65.667 20 95s31.666 54.666 54.999 75.999c2 0 3 0.333008 3 1v1c21.333 18 44.666 32.5 69.999 43.5s53.666 16.5 84.999 16.5s60.833 -6.16699 88.5 -18.5s52 -29 73 -50s37.5 -45.667 49.5 -74s18 -58.5 18 -90.5
c0 -32.667 -6.5 -63.667 -19.5 -93s-30.833 -54.666 -53.5 -75.999zM469.002 266c0 28.667 -5.33008 55.667 -15.9971 81s-25.334 47.5 -44.001 66.5s-40.334 34 -65.001 45s-51.334 16.5 -80.001 16.5c-25.333 0 -49.333 -4 -72 -12s-43 -19.667 -61 -35l275 -312
c20 19.333 35.5 41.833 46.5 67.5s16.5 53.167 16.5 82.5zM264.005 57c23.333 0 45.335 3.83398 66.002 11.501s39.667 17.834 57 30.501l-272 315c-18.667 -18.667 -33.334 -40.834 -44.001 -66.501s-16 -52.834 -16 -81.501s5.5 -55.667 16.5 -81s25.833 -47.5 44.5 -66.5
s40.667 -34 66 -45s52.666 -16.5 81.999 -16.5z" />
    <glyph glyph-name="R" unicode="R" horiz-adv-x="354" 
d="M296 16c1.33301 -3.33301 1.33105 -6.5 -0.00195312 -9.5s-3.66602 -5.16699 -6.99902 -6.5h-5c-5.33301 0 -9 2 -11 6l-112 242h-86v-236c0 -8 -3.66699 -12 -11 -12c-3.33301 0 -6.16602 1 -8.49902 3s-3.5 5 -3.5 9v248v2h2v2v2l57 91l-57 126v2l-2 2v2l2 3v2v2h2l2 2
h4h2h126h17c30.667 -4.66699 56.5 -19 77.5 -43s31.5 -52.667 31.5 -86c0 -17.333 -3.16699 -33.333 -9.5 -48s-15 -27.5 -26 -38.5s-24.333 -19.5 -40 -25.5s-32.5 -9 -50.5 -9h-4zM292.998 369c0 26 -7.66699 48.832 -23 68.499s-35 32.167 -59 37.5l-72 -120l39 -85h12
c30 0 54.667 9.33301 74 28s29 42.334 29 71.001zM126.998 379.999l59 95h-104zM122.998 332.999l-39 -63h68z" />
    <glyph glyph-name="S" unicode="S" horiz-adv-x="390" 
d="M316 243c27.333 -23.333 41.002 -55.0049 41.002 -95.0049v-2c0 -44 -16.667 -80 -50 -108c-16 -13.333 -34.833 -23.166 -56.5 -29.499s-44.5 -9.5 -68.5 -9.5h-155c-7.33301 0 -11 3.66699 -11 11s3.66699 11 11 11h155c46 0 83 11.5 111 34.5s42 53.167 42 90.5v2
c0 16 -2.66699 30.5 -8 43.5s-14 24.5 -26 34.5c-12 10.667 -28.167 19.834 -48.5 27.501s-44.5 14.834 -72.5 21.501c-28.667 5.33301 -52.667 11.5 -72 18.5s-35 15.333 -47 25s-20.667 20.667 -26 33s-8 26.5 -8 42.5v2c0 14 3.16699 27.667 9.5 41s15.166 25 26.499 35
c12 8.66699 26.333 15.5 43 20.5s34 7.5 52 7.5h139c4.66699 0 8 -1.66699 10 -5c0 -5.33301 -0.666992 -8.66602 -2 -9.99902l-119 -190c59.333 -11.333 102.666 -28.666 129.999 -51.999zM277.002 477.995l-119 0.000976562c-32 0 -58.333 -7.66699 -79 -23
s-31 -35 -31 -59v-2c0 -10.667 1.5 -20.5 4.5 -29.5s8.83301 -17.333 17.5 -25s20.667 -14.834 36 -21.501s35 -13 59 -19z" />
    <glyph glyph-name="T" unicode="T" horiz-adv-x="293" 
d="M272 501c8 0 11.998 -4 11.998 -12c0 -7.33301 -4 -11 -12 -11h-115v-23h97c8 0 12 -4 12 -12c0 -2.66699 -1.16699 -5.16699 -3.5 -7.5s-5.16602 -3.5 -8.49902 -3.5h-97v-419c0 -8 -3.66699 -12 -11 -12c-8 0 -12 4 -12 12v419h-94
c-3.33301 0 -6.16602 1.16699 -8.49902 3.5s-3.5 4.83301 -3.5 7.5c0 8 4 12 12 12h94v23h-112c-8 0 -12 3.66699 -12 11c0 8 4 12 12 12h250v0z" />
    <glyph glyph-name="U" unicode="U" horiz-adv-x="491" 
d="M443 195c0 -27.333 -5.16699 -52.835 -15.5 -76.502s-24.333 -44.167 -42 -61.5s-38.5 -31 -62.5 -41s-49.667 -15 -77 -15c-33.333 0 -64.333 7.33301 -93 22s-52.334 35.334 -71.001 62.001c-22 32.667 -33 69.334 -33 110.001v294c0 7.33301 3.66699 11 11 11
c8 0 12 -3.66699 12 -11v-294c0 -18.667 2.5 -35.834 7.5 -51.501s12.167 -31.167 21.5 -46.5c0.666992 0 1.33398 -0.333008 2.00098 -1v-1l319 403c1.33301 1.33301 3 2.33301 5 3s4.33301 0.333984 7 -0.999023c4 -2 6 -5.66699 6 -11zM246 23.998
c24 0 46.501 4.49902 67.501 13.499s39.5 21.167 55.5 36.5s28.5 33.333 37.5 54s13.5 43 13.5 67v263l-301 -380c15.333 -17.333 34.166 -30.666 56.499 -39.999s45.833 -14 70.5 -14z" />
    <glyph glyph-name="V" unicode="V" horiz-adv-x="433" 
d="M412 493c2 -2 2 -5.33301 0 -10l-184 -474c-2.66699 -6 -6.66699 -9 -12 -9c-4.66699 0 -8.33398 3 -11.001 9l-184 474c-1.33301 2 -1.66602 3.83301 -0.999023 5.5s1.66699 3.16699 3 4.5c0 3.33301 3.33301 5 10 5h370c1.33301 0 2.83301 -0.5 4.5 -1.5
s3.16699 -2.16699 4.5 -3.5zM385 475h-337l168 -432z" />
    <glyph glyph-name="W" unicode="W" horiz-adv-x="506" 
d="M438 501c8 0 12 -4.00098 12 -12.001v-477c0 -5.33301 -2.33301 -9 -7 -11h-5h-4.5c-1.66699 0 -2.5 0.666992 -2.5 2l-178 153l-180 -153c-1.33301 -1.33301 -3.66602 -2 -6.99902 -2h-4c-4.66699 2 -7 5.66699 -7 11v477c0 8 3.66699 12 11 12c8 0 12 -4 12 -12v-451
l157 134l-68 57c-6 6 -6 11.333 0 16c2 2.66699 4.5 4.33398 7.5 5.00098s5.83301 -0.333008 8.5 -3l70 -61l69 59c5.33301 5.33301 10.666 5.33301 15.999 0c4.66699 -4.66699 4.66699 -10 0 -16l-69 -57l158 -134v451c0 8 3.66699 12 11 12z" />
    <glyph glyph-name="X" unicode="X" horiz-adv-x="485" 
d="M435 18c4.66699 -6 3.66797 -11.334 -2.99902 -16.001c-1.33301 0 -2.33301 -0.333008 -3 -1s-1.66699 -1 -3 -1s-3 0.333008 -5 1s-3.66699 1.66699 -5 3l-173 224l-170 -224c-2.66699 -2.66699 -5.33398 -4 -8.00098 -4c-1.33301 0 -2.66602 0.333008 -3.99902 1
s-2.66602 1 -3.99902 1c-4.66699 6 -5.33398 11.333 -2.00098 16l174 228l-181 233c-5.33301 5.33301 -4.33301 10.333 3 15c2 2 4.5 2.66699 7.5 2s5.83301 -2 8.5 -4l176 -228l173 228c2.66699 2 5.5 3.33301 8.5 4s5.5 0 7.5 -2
c3.33301 -1.33301 5.16602 -3.66602 5.49902 -6.99902s-0.5 -6 -2.5 -8l-177 -233z" />
    <glyph glyph-name="Y" unicode="Y" horiz-adv-x="428" 
d="M408 496c2.66699 -2.66699 4.00098 -5.33105 4.00098 -7.99805s-1.33301 -4.66699 -4 -6l-184 -232v-239c0 -2.66699 -1 -5.33398 -3 -8.00098s-4.66699 -4 -8 -4c-2.66699 0 -5.33398 1.33301 -8.00098 4s-4 5.33398 -4 8.00098v239l-96 122v2l-85 108
c-6 6 -5.33301 11.333 2 16c6 3.33301 11.333 2.66602 16 -2.00098l81 -101l276 103c3.33301 1.33301 6 1.66602 8 0.999023s3.66699 -1.66699 5 -3zM365.001 464.003l-233 -90l81 -101z" />
    <glyph glyph-name="Z" unicode="Z" 
d="M401 21c3.33301 0 6.00098 -1.16797 8.00098 -3.50098s3 -4.83301 3 -7.5c0 -7.33301 -3.66699 -11 -11 -11h-182h-181c-4.66699 0 -8.33398 1.33301 -11.001 4c0 6 0.666992 10.667 2 14l179 234v224h-170c-7.33301 0 -11 3.66699 -11 11c0 2.66699 1 5.33398 3 8.00098
s4.66699 4 8 4h363c4.66699 0 8.33398 -2.33301 11.001 -7c3.33301 -5.33301 2.66602 -9 -2.00098 -11l-179 -236v-223h170zM231.001 279.999l148 195h-148v-195zM61.001 20.999h147v194z" />
    <glyph glyph-name="a" unicode="a" horiz-adv-x="437" 
d="M415 15c1.33301 -3.33301 0.333008 -8.00098 -3 -14.001c-4 -2 -8.66699 -2 -14 0l-292 164l-63 -159c0 -4.66699 -3 -7 -9 -7c-1.33301 0 -3 0.666992 -5 2c-6.66699 2.66699 -9 7.33398 -7 14.001l29 73.5l23 58l22 56.5l26 67.5l35.5 91.5l49.5 130
c1.33301 1.33301 3 2.83301 5 4.5s4 2.5 6 2.5c2.66699 0 5 -0.833008 7 -2.5s3.66699 -3.16699 5 -4.5zM382 35.999l-164 418l-105 -266z" />
    <glyph glyph-name="b" unicode="b" horiz-adv-x="436" 
d="M394 137c0 -17.333 -2.99805 -33.832 -8.99805 -49.499s-14.167 -29.5 -24.5 -41.5s-22.5 -22.167 -36.5 -30.5s-29.333 -13.5 -46 -15.5h-5h-4h-10h-4h-188c-8 0 -12 4 -12 12v475c0 8 4 12 12 12h188h2c18 0 34.667 -3.5 50 -10.5s28.666 -16.333 39.999 -28
s20.333 -25.334 27 -41.001s10 -32.5 10 -50.5c0 -24.667 -6 -46.5 -18 -65.5s-28.667 -33.167 -50 -42.5v-3c23.333 -10 42.166 -26 56.499 -48s21.5 -46.333 21.5 -73zM361.002 369.001c0 17.333 -3.83203 33.501 -11.499 48.501s-17.834 27.167 -30.501 36.5l-99 -184h39
c30 1.33301 54.5 11.166 73.5 29.499s28.5 41.5 28.5 69.5zM78.0029 59.002l102 188h-102v-188zM78.0029 475.002v-204.999h116l103 196c-6 3.33301 -12.5 5.66602 -19.5 6.99902s-14.5 2 -22.5 2h-177zM269.003 23.0029c14 1.33301 27.167 5.16992 39.5 11.5029
s23 14.666 32 24.999s16.167 22.166 21.5 35.499s8 27.333 8 42c0 15.333 -2.83301 29.666 -8.5 42.999s-13.5 25 -23.5 35s-21.833 17.833 -35.5 23.5s-28.167 8.5 -43.5 8.5h-4h-47l-122 -224h183z" />
    <glyph glyph-name="c" unicode="c" horiz-adv-x="499" 
d="M460 92c6 -6 6 -11.334 0 -16.001c-48.667 -50.667 -107.667 -76 -177 -76c-34 0 -66.167 6.5 -96.5 19.5s-56.666 30.833 -78.999 53.5s-40 49.167 -53 79.5s-19.5 62.833 -19.5 97.5c0 34 6.5 66.333 19.5 97s30.667 57.334 53 80.001s48.666 40.667 78.999 54
s62.5 20 96.5 20c56 0 107.333 -18.333 154 -55c2 -2.66699 3.5 -5.5 4.5 -8.5s0.166992 -5.5 -2.5 -7.5c-4.66699 -4.66699 -10.334 -5.66699 -17.001 -3c-37.333 30 -79.666 46.667 -126.999 50v-454c57.333 3.33301 107 26.333 149 69c4.66699 6 10 6 16 0zM58 249.999
c0 -30 5.5 -58.501 16.5 -85.501s26.167 -50.667 45.5 -71s42 -36.666 68 -48.999s53.667 -19.5 83 -21.5v454c-29.333 -2 -57 -9.33301 -83 -22s-48.667 -29.167 -68 -49.5s-34.5 -43.833 -45.5 -70.5s-16.5 -55 -16.5 -85z" />
    <glyph glyph-name="d" unicode="d" horiz-adv-x="395" 
d="M361 248c0 -54 -10 -98.8301 -30 -134.497s-44 -62.834 -72 -81.501c-1.33301 0 -3 -0.666992 -5 -2c-14.667 -9.33301 -30.167 -16.333 -46.5 -21s-32.166 -7 -47.499 -7h-94c-7.33301 0 -11 3.66699 -11 11v472v2c0 2 0.333008 3 1 3h1v2h3v2h2h2l2 2h101
c24 0 47.667 -5.33301 71 -16s43.666 -26.667 60.999 -48c15.333 -16.667 29.5 -39.834 42.5 -69.501s19.5 -67.834 19.5 -114.501zM160 25.0029c25.333 0 50.667 7 76 21l-158 381v-402h82zM254.001 60.0029c23.333 17.333 43.333 41.332 60 71.999s25 69.334 25 116.001
c0 43.333 -6.16699 78.5 -18.5 105.5s-24.833 47.5 -37.5 61.5c-16.667 18.667 -35 33.167 -55 43.5s-40.333 15.5 -61 15.5h-84z" />
    <glyph glyph-name="e" unicode="e" horiz-adv-x="420" 
d="M399 24c8 0 12 -3.66699 12 -11c0 -8 -4 -12 -12 -12h-332c-8 0 -12 4 -12 12v472v4c0 8 4 12 12 12h332c2.66699 0 5 -1 7 -3s3.66699 -4 5 -6c0 -2.66699 -0.166992 -5 -0.5 -7s-1.83301 -4 -4.5 -6l-209 -155l45 -66c3.33301 -4.66699 4 -8.66699 2 -12
c-2.66699 -4.66699 -7 -7 -13 -7h-153v-215h321zM78 265l88 63l-88 130v-193zM177 310l-63 -47h97zM364 477h-269l90 -134z" />
    <glyph glyph-name="f" unicode="f" horiz-adv-x="411" 
d="M411 490c0 -2.66699 -0.166992 -5 -0.5 -7s-1.83301 -3.66699 -4.5 -5l-210 -152l46 -70c1.33301 -2 2 -4 2 -6v-5c-2 -4.66699 -5.66699 -7 -11 -7h-155v-227c0 -7.33301 -4 -11 -12 -11c-2 0 -4.33301 1 -7 3s-4 4.66699 -4 8v236v5v231h2c-1.33301 1.33301 -2 3 -2 5
c0 3.33301 1.33301 6 4 8s5 3 7 3h334c2 0 4 -1 6 -3s3.66699 -4 5 -6zM78 273l86 59l-86 126v-185zM175 314l-72 -53h109zM363 476h-269l88 -129z" />
    <glyph glyph-name="g" unicode="g" horiz-adv-x="501" 
d="M453 208c2 0 4.33203 -1.16602 6.99902 -3.49902s4 -5.16602 4 -8.49902v-113c0 -2.66699 -1.66699 -5.66699 -5 -9c-22.667 -24 -49.334 -42.167 -80.001 -54.5s-62.667 -18.5 -96 -18.5c-34 0 -66 6.5 -96 19.5s-56.333 30.667 -79 53s-40.5 48.5 -53.5 78.5
s-19.5 62.333 -19.5 97c0 28.667 4.66699 56 14 82s22.333 49.667 39 71v3h2c22 28.667 49.833 51.5 83.5 68.5s70.167 25.5 109.5 25.5c58 0 109 -17.333 153 -52c4.66699 -4.66699 5.66699 -10.334 3 -17.001c-6 -6 -11.333 -6.66699 -16 -2c-42 32 -88.667 48 -140 48
c-33.333 0 -64.666 -6.83301 -93.999 -20.5s-54.666 -32.834 -75.999 -57.501l218 -190h122zM355.999 184.001l85 -71v71h-85zM57.999 249.001c0 -31.333 5.83203 -60.499 17.499 -87.499s27.834 -50.833 48.501 -71.5s44.5 -36.834 71.5 -48.501s56.167 -17.5 87.5 -17.5
c28.667 0 56.167 5.16699 82.5 15.5s49.833 25.833 70.5 46.5l-337 294c-12.667 -18.667 -22.667 -39.167 -30 -61.5s-11 -45.5 -11 -69.5z" />
    <glyph glyph-name="h" unicode="h" horiz-adv-x="503" 
d="M435 497c3.33301 0 6.16602 -1.1709 8.49902 -3.50391s3.5 -5.16602 3.5 -8.49902v-473c0 -3.33301 -1.16699 -6.16602 -3.5 -8.49902s-5.16602 -3.5 -8.49902 -3.5c-8 0 -12 4 -12 12v341l-345 -220v-121c0 -3.33301 -1.33301 -6.16602 -4 -8.49902s-5 -3.5 -7 -3.5
c-8 0 -12 4 -12 12v473c0 8 4 12 12 12c2 0 4.33301 -1.16699 7 -3.5s4 -5.16602 4 -8.49902v-325l345 220v105c0 8 4 12 12 12z" />
    <glyph glyph-name="i" unicode="i" horiz-adv-x="151" 
d="M136 255c3.33301 0 6 -1.33301 8 -4s3 -5 3 -7c0 -7.33301 -3.66699 -11 -11 -11h-51v-221c0 -2 -1 -4.33301 -3 -7s-4.66699 -4 -8 -4s-6 1.33301 -8 4s-3 5 -3 7v221h-46c-2 0 -4.33301 1 -7 3s-4 4.66699 -4 8c0 2 1.33301 4.33301 4 7s5 4 7 4h46v21h-37
c-7.33301 0 -11 4 -11 12c0 7.33301 3.66699 11 11 11h37v186c0 8 3.66699 12 11 12s11 -4 11 -12v-186h41c8 0 12 -3.66699 12 -11c0 -8 -4 -12 -12 -12h-41v-21h51v0z" />
    <glyph glyph-name="j" unicode="j" horiz-adv-x="311" 
d="M254 8l-0.000976562 -1.99902c-0.666992 0 -1.33398 -0.333008 -2.00098 -1h-1v-1l-2 -3h-2l-3 -2h-2h-227h-3c-1.33301 0 -2 0.333008 -2 1v1h-2l-3 3v2h-2v2v3v97c0 3.33301 1.66699 6.66602 5 9.99902c2.66699 2.66699 6.33398 2.66699 11.001 0l68 -28l143 124v275
c0 3.33301 1.33301 6 4 8s5.33398 3 8.00098 3c8 0 12 -3.66699 12 -11v-478v-3zM109.999 80.001l120 -50v155zM44.999 22.001h139l-93 39zM25.999 37.001l42 36l-42 17v-53z" />
    <glyph glyph-name="k" unicode="k" horiz-adv-x="352" 
d="M308 19c2.66699 -6.66699 1.66406 -12.334 -3.00293 -17.001c-1.33301 0 -2.5 -0.333008 -3.5 -1s-2.16699 -1 -3.5 -1c-4 0 -7 1.66699 -9 5l-164 208l-47 -69v-132c0 -2.66699 -1 -5.33398 -3 -8.00098s-4.66699 -4 -8 -4s-6.16602 1.33301 -8.49902 4
s-3.5 5.33398 -3.5 8.00098v479c0 8 4 12 12 12c7.33301 0 11 -4 11 -12v-306l211 313c1.33301 2.66699 3.33301 4.33398 6 5.00098s5.33398 0 8.00098 -2c3.33301 -1.33301 5.33301 -3.5 6 -6.5s0.333984 -5.5 -0.999023 -7.5l-170 -253z" />
    <glyph glyph-name="l" unicode="l" horiz-adv-x="307" 
d="M302 21c2.66699 -1.33301 4.16699 -3.33203 4.5 -5.99902s0.5 -5.33398 0.5 -8.00098c-2.66699 -4.66699 -6.66699 -7 -12 -7h-228c-8 0 -12 4 -12 12v173v305c0 8 4 12 12 12c7.33301 0 11 -4 11 -12v-298zM260 23.001l-182 139v-139h182z" />
    <glyph glyph-name="m" unicode="m" horiz-adv-x="506" 
d="M443 499c4.66699 -2 7 -5.66699 7 -11v-478c0 -2 -1 -4.33301 -3 -7s-4.66699 -4 -8 -4c-4 0 -7 1.33301 -9 4s-3 5 -3 7v154l-349 300v-454c0 -2 -1.16699 -4.33301 -3.5 -7s-5.16602 -4 -8.49902 -4s-6 1.33301 -8 4s-3 5 -3 7v478c0 5.33301 2.33301 9 7 11
c5.33301 2.66699 9 2 11 -2l180 -153l178 153c1.33301 2 3.16602 3.16699 5.49902 3.5s4.5 -0.166992 6.5 -1.5zM427 193v271l-157 -137z" />
    <glyph glyph-name="n" unicode="n" horiz-adv-x="499" 
d="M432 497c7.33301 0 11 -3.66699 11 -11v-476c0 -5.33301 -2.33301 -9 -7 -11h-4c-3.33301 0 -6.33301 1.33301 -9 4l-157 205l-191 -200c-1.33301 -1.33301 -2.83301 -2 -4.5 -2h-4.5h-4c-4.66699 2 -7 5.66699 -7 11v469v2v2h2v3c1.33301 0 2 0.666992 2 2h3v2h2h2h2
c1.33301 0 2 -0.666992 2 -2h3v-2h2l346 -449v442c0 7.33301 3.66699 11 11 11zM253 225l-176 227v-408z" />
    <glyph glyph-name="o" unicode="o" horiz-adv-x="482" 
d="M241 427c30 0 57.833 -5.5 83.5 -16.5s48.167 -26.167 67.5 -45.5s34.5 -41.833 45.5 -67.5s16.5 -53.5 16.5 -83.5c0 -29.333 -5.5 -56.833 -16.5 -82.5s-26.167 -48.167 -45.5 -67.5s-41.833 -34.666 -67.5 -45.999s-53.5 -17 -83.5 -17
c-29.333 0 -56.833 5.66699 -82.5 17s-48.167 26.666 -67.5 45.999s-34.666 41.833 -45.999 67.5s-17 53.167 -17 82.5c0 30 5.66699 57.833 17 83.5s26.666 48.167 45.999 67.5s41.833 34.5 67.5 45.5s53.167 16.5 82.5 16.5zM241 25c26.667 0 51.667 5 75 15
s43.5 23.5 60.5 40.5s30.333 37 40 60s14.5 47.5 14.5 73.5c0 26.667 -4.83301 51.667 -14.5 75s-23 43.5 -40 60.5s-37.167 30.333 -60.5 40s-48.333 14.5 -75 14.5c-26 0 -50.5 -4.83301 -73.5 -14.5s-43 -23 -60 -40s-30.5 -37.167 -40.5 -60.5s-15 -48.333 -15 -75
c0 -26 5 -50.5 15 -73.5s23.5 -43 40.5 -60s37 -30.5 60 -40.5s47.5 -15 73.5 -15zM135 474c-4 0 -7.00098 1.16699 -9.00098 3.5s-3 4.83301 -3 7.5c0 8 4 12 12 12h215c8 0 12 -4 12 -12c0 -2.66699 -1.16699 -5.16699 -3.5 -7.5s-5.16602 -3.5 -8.49902 -3.5h-215z" />
    <glyph glyph-name="p" unicode="p" horiz-adv-x="322" 
d="M290 446c8 -10.667 14.666 -22.6689 19.999 -36.002s8 -27.666 8 -42.999c0 -17.333 -3.33301 -33.333 -10 -48s-15.667 -27.167 -27 -37.5s-25 -18.5 -41 -24.5s-33 -9 -51 -9h-111v-235c0 -8 -3.66699 -12 -11 -12c-8 0 -12 4 -12 12v472c0 7.33301 4 11 12 11h122
c19.333 0 37.833 -4.16699 55.5 -12.5s32.834 -20.166 45.501 -35.499v-2zM77.999 472.998l-0.000976562 -189l187 157c-21.333 21.333 -46.666 32 -75.999 32h-111zM188.998 270.998c30 0 55.167 8.83203 75.5 26.499s30.5 40.834 30.5 69.501
c0 10.667 -1.5 20.667 -4.5 30s-6.83301 18 -11.5 26l-180 -152h90z" />
    <glyph glyph-name="q" unicode="q" horiz-adv-x="537" 
d="M491 17c4.66699 -4.66699 4.66895 -10 0.00195312 -16c-1.33301 0 -2.66602 -0.333008 -3.99902 -1s-3 -1 -5 -1c-2.66699 0 -5 1.66699 -7 5l-71 79c-20 -15.333 -42 -27.333 -66 -36s-48.667 -13 -74 -13c-32.667 0 -63.167 6.16699 -91.5 18.5s-53 29 -74 50
s-37.5 45.5 -49.5 73.5s-18 58 -18 90c0 34 6.66699 65.667 20 95s31.666 54.666 54.999 75.999c2 0 3 0.333008 3 1v1c21.333 18 44.666 32.5 69.999 43.5s53.666 16.5 84.999 16.5s60.833 -6.16699 88.5 -18.5s52 -29 73 -50s37.5 -45.667 49.5 -74s18 -58.5 18 -90.5
c0 -32.667 -6.5 -63.667 -19.5 -93s-30.833 -54.666 -53.5 -75.999zM469.002 266c0 28.667 -5.33008 55.667 -15.9971 81s-25.334 47.5 -44.001 66.5s-40.334 34 -65.001 45s-51.334 16.5 -80.001 16.5c-25.333 0 -49.333 -4 -72 -12s-43 -19.667 -61 -35l275 -312
c20 19.333 35.5 41.833 46.5 67.5s16.5 53.167 16.5 82.5zM264.005 57c23.333 0 45.335 3.83398 66.002 11.501s39.667 17.834 57 30.501l-272 315c-18.667 -18.667 -33.334 -40.834 -44.001 -66.501s-16 -52.834 -16 -81.501s5.5 -55.667 16.5 -81s25.833 -47.5 44.5 -66.5
s40.667 -34 66 -45s52.666 -16.5 81.999 -16.5z" />
    <glyph glyph-name="r" unicode="r" horiz-adv-x="354" 
d="M296 16c1.33301 -3.33301 1.33105 -6.5 -0.00195312 -9.5s-3.66602 -5.16699 -6.99902 -6.5h-5c-5.33301 0 -9 2 -11 6l-112 242h-86v-236c0 -8 -3.66699 -12 -11 -12c-3.33301 0 -6.16602 1 -8.49902 3s-3.5 5 -3.5 9v248v2h2v2v2l57 91l-57 126v2l-2 2v2l2 3v2v2h2l2 2
h4h2h126h17c30.667 -4.66699 56.5 -19 77.5 -43s31.5 -52.667 31.5 -86c0 -17.333 -3.16699 -33.333 -9.5 -48s-15 -27.5 -26 -38.5s-24.333 -19.5 -40 -25.5s-32.5 -9 -50.5 -9h-4zM292.998 369c0 26 -7.66699 48.832 -23 68.499s-35 32.167 -59 37.5l-72 -120l39 -85h12
c30 0 54.667 9.33301 74 28s29 42.334 29 71.001zM126.998 379.999l59 95h-104zM122.998 332.999l-39 -63h68z" />
    <glyph glyph-name="s" unicode="s" horiz-adv-x="390" 
d="M316 243c27.333 -23.333 41.002 -55.0049 41.002 -95.0049v-2c0 -44 -16.667 -80 -50 -108c-16 -13.333 -34.833 -23.166 -56.5 -29.499s-44.5 -9.5 -68.5 -9.5h-155c-7.33301 0 -11 3.66699 -11 11s3.66699 11 11 11h155c46 0 83 11.5 111 34.5s42 53.167 42 90.5v2
c0 16 -2.66699 30.5 -8 43.5s-14 24.5 -26 34.5c-12 10.667 -28.167 19.834 -48.5 27.501s-44.5 14.834 -72.5 21.501c-28.667 5.33301 -52.667 11.5 -72 18.5s-35 15.333 -47 25s-20.667 20.667 -26 33s-8 26.5 -8 42.5v2c0 14 3.16699 27.667 9.5 41s15.166 25 26.499 35
c12 8.66699 26.333 15.5 43 20.5s34 7.5 52 7.5h139c4.66699 0 8 -1.66699 10 -5c0 -5.33301 -0.666992 -8.66602 -2 -9.99902l-119 -190c59.333 -11.333 102.666 -28.666 129.999 -51.999zM277.002 477.995l-119 0.000976562c-32 0 -58.333 -7.66699 -79 -23
s-31 -35 -31 -59v-2c0 -10.667 1.5 -20.5 4.5 -29.5s8.83301 -17.333 17.5 -25s20.667 -14.834 36 -21.501s35 -13 59 -19z" />
    <glyph glyph-name="t" unicode="t" horiz-adv-x="293" 
d="M272 501c8 0 11.998 -4 11.998 -12c0 -7.33301 -4 -11 -12 -11h-115v-23h97c8 0 12 -4 12 -12c0 -2.66699 -1.16699 -5.16699 -3.5 -7.5s-5.16602 -3.5 -8.49902 -3.5h-97v-419c0 -8 -3.66699 -12 -11 -12c-8 0 -12 4 -12 12v419h-94
c-3.33301 0 -6.16602 1.16699 -8.49902 3.5s-3.5 4.83301 -3.5 7.5c0 8 4 12 12 12h94v23h-112c-8 0 -12 3.66699 -12 11c0 8 4 12 12 12h250v0z" />
    <glyph glyph-name="u" unicode="u" horiz-adv-x="491" 
d="M443 195c0 -27.333 -5.16699 -52.835 -15.5 -76.502s-24.333 -44.167 -42 -61.5s-38.5 -31 -62.5 -41s-49.667 -15 -77 -15c-33.333 0 -64.333 7.33301 -93 22s-52.334 35.334 -71.001 62.001c-22 32.667 -33 69.334 -33 110.001v294c0 7.33301 3.66699 11 11 11
c8 0 12 -3.66699 12 -11v-294c0 -18.667 2.5 -35.834 7.5 -51.501s12.167 -31.167 21.5 -46.5c0.666992 0 1.33398 -0.333008 2.00098 -1v-1l319 403c1.33301 1.33301 3 2.33301 5 3s4.33301 0.333984 7 -0.999023c4 -2 6 -5.66699 6 -11zM246 23.998
c24 0 46.501 4.49902 67.501 13.499s39.5 21.167 55.5 36.5s28.5 33.333 37.5 54s13.5 43 13.5 67v263l-301 -380c15.333 -17.333 34.166 -30.666 56.499 -39.999s45.833 -14 70.5 -14z" />
    <glyph glyph-name="v" unicode="v" horiz-adv-x="433" 
d="M412 493c2 -2 2 -5.33301 0 -10l-184 -474c-2.66699 -6 -6.66699 -9 -12 -9c-4.66699 0 -8.33398 3 -11.001 9l-184 474c-1.33301 2 -1.66602 3.83301 -0.999023 5.5s1.66699 3.16699 3 4.5c0 3.33301 3.33301 5 10 5h370c1.33301 0 2.83301 -0.5 4.5 -1.5
s3.16699 -2.16699 4.5 -3.5zM385 475h-337l168 -432z" />
    <glyph glyph-name="w" unicode="w" horiz-adv-x="506" 
d="M438 501c8 0 12 -4.00098 12 -12.001v-477c0 -5.33301 -2.33301 -9 -7 -11h-5h-4.5c-1.66699 0 -2.5 0.666992 -2.5 2l-178 153l-180 -153c-1.33301 -1.33301 -3.66602 -2 -6.99902 -2h-4c-4.66699 2 -7 5.66699 -7 11v477c0 8 3.66699 12 11 12c8 0 12 -4 12 -12v-451
l157 134l-68 57c-6 6 -6 11.333 0 16c2 2.66699 4.5 4.33398 7.5 5.00098s5.83301 -0.333008 8.5 -3l70 -61l69 59c5.33301 5.33301 10.666 5.33301 15.999 0c4.66699 -4.66699 4.66699 -10 0 -16l-69 -57l158 -134v451c0 8 3.66699 12 11 12z" />
    <glyph glyph-name="x" unicode="x" horiz-adv-x="485" 
d="M435 18c4.66699 -6 3.66797 -11.334 -2.99902 -16.001c-1.33301 0 -2.33301 -0.333008 -3 -1s-1.66699 -1 -3 -1s-3 0.333008 -5 1s-3.66699 1.66699 -5 3l-173 224l-170 -224c-2.66699 -2.66699 -5.33398 -4 -8.00098 -4c-1.33301 0 -2.66602 0.333008 -3.99902 1
s-2.66602 1 -3.99902 1c-4.66699 6 -5.33398 11.333 -2.00098 16l174 228l-181 233c-5.33301 5.33301 -4.33301 10.333 3 15c2 2 4.5 2.66699 7.5 2s5.83301 -2 8.5 -4l176 -228l173 228c2.66699 2 5.5 3.33301 8.5 4s5.5 0 7.5 -2
c3.33301 -1.33301 5.16602 -3.66602 5.49902 -6.99902s-0.5 -6 -2.5 -8l-177 -233z" />
    <glyph glyph-name="y" unicode="y" horiz-adv-x="428" 
d="M408 496c2.66699 -2.66699 4.00098 -5.33105 4.00098 -7.99805s-1.33301 -4.66699 -4 -6l-184 -232v-239c0 -2.66699 -1 -5.33398 -3 -8.00098s-4.66699 -4 -8 -4c-2.66699 0 -5.33398 1.33301 -8.00098 4s-4 5.33398 -4 8.00098v239l-96 122v2l-85 108
c-6 6 -5.33301 11.333 2 16c6 3.33301 11.333 2.66602 16 -2.00098l81 -101l276 103c3.33301 1.33301 6 1.66602 8 0.999023s3.66699 -1.66699 5 -3zM365.001 464.003l-233 -90l81 -101z" />
    <glyph glyph-name="z" unicode="z" 
d="M401 21c3.33301 0 6.00098 -1.16797 8.00098 -3.50098s3 -4.83301 3 -7.5c0 -7.33301 -3.66699 -11 -11 -11h-182h-181c-4.66699 0 -8.33398 1.33301 -11.001 4c0 6 0.666992 10.667 2 14l179 234v224h-170c-7.33301 0 -11 3.66699 -11 11c0 2.66699 1 5.33398 3 8.00098
s4.66699 4 8 4h363c4.66699 0 8.33398 -2.33301 11.001 -7c3.33301 -5.33301 2.66602 -9 -2.00098 -11l-179 -236v-223h170zM231.001 279.999l148 195h-148v-195zM61.001 20.999h147v194z" />
    <glyph glyph-name="E.001" 
d="M55 475l-0.00390625 1.99805c0 7.33301 2 13.166 6 17.499s8.66699 6.5 14 6.5h320c4.66699 0 8.83398 -1.5 12.501 -4.5s6.16699 -7.16699 7.5 -12.5c2.66699 -10.667 0.333984 -18 -6.99902 -22l-192 -145l36 -54c2.66699 -3.33301 4.33398 -7.16602 5.00098 -11.499
s-0.333008 -8.16602 -3 -11.499c-2 -3.33301 -4.66699 -6.16602 -8 -8.49902s-6.66602 -3.5 -9.99902 -3.5h-138v-185h297c5.33301 0 10.333 -2 15 -6s7 -9.66699 7 -17c0 -5.33301 -2.33301 -10 -7 -14s-9.66699 -6 -15 -6h-320c-5.33301 0 -10 2 -14 6s-6 8.66699 -6 14
v453v2zM195.996 270.998l-17 21l-27 -21h44zM119.996 456.998l71 -104l138 104h-209zM97.9961 282.998l59 45l-59 86v-131z" />
    <glyph glyph-name="F.001" horiz-adv-x="419" 
d="M55 478l-0.000976562 1.99805c0 14.667 7.33301 22 22 22h319c10.667 0 17.334 -5.33301 20.001 -16c2.66699 -9.33301 0.333984 -16.666 -6.99902 -21.999l-196 -140l40 -60c5.33301 -7.33301 6 -14.666 2 -21.999c-4.66699 -8 -11.334 -12 -20.001 -12h-138v-207
c0 -5.33301 -2 -10.333 -6 -15s-8.66699 -7 -14 -7c-6.66699 0 -12 2.33301 -16 7s-6 9.66699 -6 15v225v7v220v3zM194.999 272.998l-18 26l-35 -26h53zM121.999 459.998l67 -100l140 100h-207zM96.999 292.998l58 42l-58 85v-127z" />
    <glyph glyph-name="G.001" horiz-adv-x="507" 
d="M461 76c-24 -24 -51 -42.501 -81 -55.501s-62.333 -19.5 -97 -19.5c-34 0 -66.167 6.5 -96.5 19.5s-56.666 30.833 -78.999 53.5s-40 49.167 -53 79.5s-19.5 62.833 -19.5 97.5c0 28.667 4.5 56 13.5 82s21.5 49.667 37.5 71c1.33301 0 2 0.333008 2 1v1v2
c23.333 28.667 51.833 51.334 85.5 68.001s70.167 25 109.5 25c58 0 109.667 -17.667 155 -53c4 -3.33301 6.33301 -8 7 -14s-1 -11 -5 -15c-3.33301 -5.33301 -8 -8.33301 -14 -9s-11 0.666016 -15 3.99902c-39.333 30 -82 45 -128 45
c-28.667 0 -55.834 -5.83301 -81.501 -17.5s-48.167 -27.5 -67.5 -47.5l199 -172h113c5.33301 0 10 -2.33301 14 -7s6 -9.66699 6 -15v-111c0 -3.33301 -1.66699 -7.66602 -5 -12.999zM283 42.999c51.333 0 96 16 134 48l-309 271c-20.667 -35.333 -31 -72.333 -31 -111
c0 -28.667 5.5 -55.667 16.5 -81s25.833 -47.333 44.5 -66s40.5 -33.5 65.5 -44.5s51.5 -16.5 79.5 -16.5zM424 179.999h-42l42 -40v40z" />
    <glyph glyph-name="H.001" horiz-adv-x="511" 
d="M433 0c-5.33301 0 -10 2 -14 6s-6 9.33301 -6 16v312l-315 -201v-111c0 -6.66699 -2 -12 -6 -16s-9 -6 -15 -6c-5.33301 0 -10.333 2 -15 6s-7 9.33301 -7 16v458c0 5.33301 2.33301 10 7 14s9.66699 6 15 6c6 0 11 -2 15 -6s6 -8.66699 6 -14v-298l315 201v97
c0 5.33301 2 10 6 14s8.66699 6 14 6s10.333 -2 15 -6s7 -8.66699 7 -14v-458c0 -6.66699 -2.33301 -12 -7 -16s-9.66699 -6 -15 -6z" />
    <glyph glyph-name="I.001" horiz-adv-x="178" 
d="M67 266v14h-27c-5.33301 0 -10 2.33301 -14 7s-6 9.66699 -6 15s2 10 6 14s8.66699 6 14 6h27v160c0 5.33301 2 10 6 14s8.66699 6 14 6c6.66699 0 12 -2 16 -6s6 -8.66699 6 -14v-160h29c5.33301 0 10.333 -2 15 -6s7 -8.66699 7 -14s-2.33301 -10.333 -7 -15
s-9.66699 -7 -15 -7h-29v-14h38c5.33301 0 10.333 -2.33301 15 -7s7 -9.66699 7 -15s-2.33301 -9.83301 -7 -13.5s-9.66699 -5.5 -15 -5.5h-38v-205c0 -5.33301 -2 -10 -6 -14s-9.33301 -6 -16 -6c-5.33301 0 -10 2 -14 6s-6 8.66699 -6 14v205h-34
c-14.667 0 -22 6.33301 -22 19c0 5.33301 2 10.333 6 15s9.33301 7 16 7h34z" />
    <glyph glyph-name="J.001" horiz-adv-x="323" 
d="M28 0l-2.99902 -0.000976562h-3c0 1.33301 -0.666992 2 -2 2h-2c-1.33301 0 -2 0.333008 -2 1v1c-1.33301 0 -2 1 -2 3c-1.33301 0 -2 0.666992 -2 2c-2 0 -3 0.666992 -3 2h-1c-0.666992 0 -1 0.666992 -1 2v2v2l-2 3v3v91c0 7.33301 3.66699 13 11 17
c2 2 5 3.16699 9 3.5s7.66699 -0.166992 11 -1.5l58 -25l131 112v260c0 5.33301 2 9.83301 6 13.5s8.66699 5.5 14 5.5c14.667 0 22 -6.33301 22 -19v-457v-3v-3v-2c-1.33301 -1.33301 -2 -2.66602 -2 -3.99902l-2 -2l-2 -2l-3 -3
c-0.666992 0 -1.33398 -0.333008 -2.00098 -1v-1h-2h-2h-1c-0.666992 0 -1 -0.666992 -1 -2h-2h-3h-217zM58.001 77.999l-11 4v-13zM140.001 41.999l-37 18l-20 -18h57zM225.001 164.999l-87 -74l87 -38v112z" />
    <glyph glyph-name="K.001" horiz-adv-x="363" 
d="M279 487c3.33301 4 7.83301 7.00195 13.5 9.00195s10.834 1.33301 15.501 -2c5.33301 -3.33301 8.5 -8 9.5 -14s-0.166992 -11 -3.5 -15l-156 -234l154 -196c4 -4.66699 5.66699 -9.83398 5 -15.501s-3.33398 -10.834 -8.00098 -15.501
c-5.33301 -2.66699 -9.66602 -4 -12.999 -4c-6.66699 0 -12.334 3 -17.001 9l-145 186l-38 -52v-121c0 -5.33301 -1.83301 -10.333 -5.5 -15s-8.16699 -7 -13.5 -7s-10.333 2.33301 -15 7s-7 9.66699 -7 15v454c0 5.33301 2.33301 9.83301 7 13.5s9.66699 5.5 15 5.5
c12.667 0 19 -6.33301 19 -19v-259l18 24z" />
    <glyph glyph-name="L.001" horiz-adv-x="319" 
d="M75 499c5.33301 0 10.334 -1.99902 15.001 -5.99902s7 -9.33301 7 -16v-281l211 -160c3.33301 -2 5.5 -5.33301 6.5 -10s0.833008 -8.66699 -0.5 -12c-1.33301 -4.66699 -3.83301 -8.33398 -7.5 -11.001s-7.83398 -4 -12.501 -4h-219c-5.33301 0 -10 2 -14 6
s-6 9.33301 -6 16v166v290c0 6.66699 2 12 6 16s8.66699 6 14 6zM97.001 145.001v-104h135z" />
    <glyph glyph-name="M.001" horiz-adv-x="507" 
d="M429 1c-5.33301 0 -9.83203 2.33398 -13.499 7.00098s-5.5 9.66699 -5.5 15v139l-314 270v-409c0 -5.33301 -1.83301 -10.333 -5.5 -15s-8.83398 -7 -15.501 -7c-5.33301 0 -10 2.33301 -14 7s-6 9.66699 -6 15v455c0 8.66699 3.66699 15 11 19c10 2 18 0.666992 24 -4
l163 -142l163 142c6 5.33301 13.333 6.66602 22 3.99902c8.66699 -4 13 -10.333 13 -19v-455c0 -5.33301 -2 -10.333 -6 -15s-9.33301 -7 -16 -7zM410.001 216.001v216l-127 -107z" />
    <glyph glyph-name="N.001" horiz-adv-x="504" 
d="M267 197l-178 -183c-4 -4 -8.66699 -6 -14 -6c-3.33301 0 -5.66602 0.666992 -6.99902 2c-8.66699 2 -13 7.66699 -13 17v451v3v2v2v2h2v2v3h2v1h3v2h2v2h2h2l2 2h3h2h1h2h3v-2h2h2v-2h2l2 -2l3 -1l315 -409v395c0 7.33301 2 12.666 6 15.999s8.66699 5 14 5
s10.166 -1.66699 14.499 -5s6.5 -8.66602 6.5 -15.999v-456c0 -4 -1.5 -7.83301 -4.5 -11.5s-6.83301 -6.16699 -11.5 -7.5c-1.33301 -1.33301 -3 -2 -5 -2c-8 0 -13.333 3 -16 9zM240 230l-144 187v-338z" />
    <glyph glyph-name="O.001" horiz-adv-x="495" 
d="M32 217c0 29.333 5.66699 57 17 83s26.666 48.667 45.999 68s42.333 34.666 69 45.999s55 17 85 17c29.333 0 57 -5.66699 83 -17s48.667 -26.666 68 -45.999s34.666 -42 45.999 -68s17 -53.667 17 -83c0 -30 -5.66699 -58.167 -17 -84.5s-26.666 -49.333 -45.999 -69
s-42 -35.167 -68 -46.5s-53.667 -17 -83 -17c-30 0 -58.333 5.66699 -85 17s-49.667 26.833 -69 46.5s-34.666 42.667 -45.999 69s-17 54.5 -17 84.5zM249 389c-24 0 -46.667 -4.5 -68 -13.5s-39.833 -21.167 -55.5 -36.5s-28.167 -33.5 -37.5 -54.5s-14 -43.5 -14 -67.5
s4.66699 -46.667 14 -68s21.833 -39.833 37.5 -55.5s34.167 -28.167 55.5 -37.5s44 -14 68 -14c23.333 0 45.333 4.66699 66 14s38.834 21.833 54.501 37.5s28.167 34.167 37.5 55.5s14 44 14 68s-4.66699 46.5 -14 67.5s-21.833 39.167 -37.5 54.5
s-33.834 27.5 -54.501 36.5s-42.667 13.5 -66 13.5zM121 478c0 5.33301 2 10 6 14s9.66699 6 17 6h207c6 0 11.333 -2 16 -6s7 -8.66699 7 -14s-2.33301 -10.333 -7 -15s-10 -7 -16 -7h-207c-7.33301 0 -13 2.33301 -17 7s-6 9.66699 -6 15z" />
    <glyph glyph-name="P.001" horiz-adv-x="332" 
d="M75 -1c-5.33301 0 -10.001 1.99902 -14.001 5.99902s-6 8.66699 -6 14v458c0 5.33301 2 10 6 14s8.66699 6 14 6h118c21.333 0 40.833 -4.66699 58.5 -14s32.834 -21.666 45.501 -36.999c1.33301 0 2 -0.666992 2 -2c18 -23.333 27 -51 27 -83
c0 -18 -3.33301 -34.5 -10 -49.5s-16 -28 -28 -39s-26.167 -19.667 -42.5 -26s-33.833 -9.5 -52.5 -9.5h-96v-218c0 -5.33301 -2.33301 -10 -7 -14s-9.66699 -6 -15 -6zM283.999 360.999c0 14.667 -2.33301 28 -7 40l-144 -122h60c26.667 0 48.5 7.83301 65.5 23.5
s25.5 35.167 25.5 58.5zM96.999 302.999l153.999 132c-15.333 12.667 -34.666 19 -57.999 19h-96v-151z" />
    <glyph glyph-name="Q.001" horiz-adv-x="537" 
d="M473 -1c-8.66699 0 -15 2.99805 -19 8.99805l-60 67c-17.333 -13.333 -37.333 -23.666 -60 -30.999s-46.667 -11 -72 -11c-32 0 -61.833 6.16699 -89.5 18.5s-52 29 -73 50s-37.5 45.667 -49.5 74s-18 58.5 -18 90.5c0 34 6.83301 65.5 20.5 94.5s31.5 54.167 53.5 75.5
h1l1 2h2c20 17.333 43 31.333 69 42s53.667 16 83 16c32 0 62 -6 90 -18s52.5 -28.5 73.5 -49.5s37.5 -45.333 49.5 -73s18 -57.5 18 -89.5s-5.66699 -61.833 -17 -89.5s-27.333 -51.834 -48 -72.501l60 -69c3.33301 -5.33301 5 -10.666 5 -15.999
s-2.33301 -9.66602 -7 -12.999c-4 -4.66699 -8.33301 -7 -13 -7zM262 74.998c19.333 0 37.832 3.16504 55.499 9.49805s34.5 14.5 50.5 24.5l-246 279c-15.333 -15.333 -27 -33.666 -35 -54.999s-12 -43.666 -12 -66.999c0 -26.667 4.83301 -51.5 14.5 -74.5
s22.834 -43.167 39.501 -60.5s36.5 -31 59.5 -41s47.5 -15 73.5 -15zM397.999 134.996c16 17.333 28.667 36.999 38 58.999s14 46 14 72c0 25.333 -5 49.333 -15 72s-23.5 42.5 -40.5 59.5s-36.833 30.5 -59.5 40.5s-47 15 -73 15c-20 0 -39.333 -3.16699 -58 -9.5
s-35.667 -15.166 -51 -26.499z" />
    <glyph glyph-name="R.001" horiz-adv-x="363" 
d="M212 497c16 -2 30.832 -7.00098 44.499 -15.001s25.5 -17.833 35.5 -29.5s18 -25.167 24 -40.5s9 -31.666 9 -48.999c0 -34 -11 -62.667 -33 -86s-50 -36.666 -84 -39.999l95 -209c2.66699 -5.33301 3 -10.333 1 -15s-5.66699 -8.33398 -11 -11.001
c-1.33301 -1.33301 -2.83301 -2 -4.5 -2h-4.5c-3.33301 0 -6.66602 1 -9.99902 3s-5.66602 4.66699 -6.99902 8l-106 226h-67v-217c0 -5.33301 -1.83301 -10 -5.5 -14s-8.16699 -6 -13.5 -6c-6.66699 0 -12 2 -16 6s-6 8.66699 -6 14v239v2v2l2 3v2v2l52 82l-52 116v3
c-1.33301 0 -2 0.666992 -2 2v2v2v2v2v3h2v2v2h2v2l3 2h1l1 2h2v3h2h2h2c2 0 3 0.666992 3 2h2h120c3.33301 0 6.16602 -0.333008 8.49902 -1s4.5 -1 6.5 -1h2zM132.999 394.999l39 63h-67zM141.999 278.999l-13 28l-17 -28h30zM194.999 278.999
c26 0 47.333 7.66797 64 23.001s25 35.666 25 60.999c0 21.333 -6.16699 40.333 -18.5 57s-27.833 27.667 -46.5 33l-64 -103l33 -71h7z" />
    <glyph glyph-name="S.001" horiz-adv-x="402" 
d="M317 41c-33.333 -27.333 -75.3291 -41.0059 -125.996 -41.0059h-148c-5.33301 0 -9.66602 1.66699 -12.999 5s-5 7.66602 -5 12.999c0 6.66699 1.66699 11.834 5 15.501s7.66602 5.5 12.999 5.5h148c20 0 38.5 2.66699 55.5 8s31.5 12.833 43.5 22.5
s21.5 21.334 28.5 35.001s10.5 28.834 10.5 45.501c0 10.667 -1.5 21.334 -4.5 32.001s-9.33301 20.834 -19 30.501s-23.834 18.834 -42.501 27.501s-43.334 16.334 -74.001 23.001c-3.33301 0 -6 0.333008 -8 1s-4 1 -6 1c-52 11.333 -88.667 26.166 -110 44.499
s-32 43.833 -32 76.5s13 59.334 39 80.001c27.333 19.333 59.666 29 96.999 29h131c9.33301 0 15.666 -2.66699 18.999 -8c2.66699 -8.66699 2 -15.667 -2 -21l-107 -168c19.333 -4.66699 38.5 -10.5 57.5 -17.5s36 -16.167 51 -27.5s27 -25.333 36 -42s13.5 -37 13.5 -61
c0 -44.667 -17 -81 -51 -109zM265.004 455.994h-96.001c-28 0 -51.167 -6.33301 -69.5 -19s-27.5 -29.667 -27.5 -51c0 -8 0.833008 -15.5 2.5 -22.5s5.83398 -13.833 12.501 -20.5s16.667 -13 30 -19s31.333 -12 54 -18z" />
    <glyph glyph-name="T.001" horiz-adv-x="312" 
d="M178 20c0 -13.333 -7.33301 -20 -22 -20c-5.33301 -0 -10 1.83301 -14 5.5s-6 8.5 -6 14.5v372h-82c-5.33301 0 -10 2.16699 -14 6.5s-6 9.16602 -6 14.499c0 6 2 10.833 6 14.5s8.66699 5.5 14 5.5h82v25h-100c-5.33301 0 -10.333 2 -15 6s-7 9.33301 -7 16
c0 5.33301 2.33301 10 7 14s9.66699 6 15 6h241c6 0 10.833 -2 14.5 -6s5.5 -8.66699 5.5 -14c0 -14.667 -6.66699 -22 -20 -22h-99v-25h81c14.667 0 22 -6.66699 22 -20c0 -5.33301 -1.83301 -10.166 -5.5 -14.499s-9.16699 -6.5 -16.5 -6.5h-81v-372v0z" />
    <glyph glyph-name="U.001" horiz-adv-x="492" 
d="M444 195c0 -27.333 -5.33203 -52.666 -15.999 -75.999s-25 -43.833 -43 -61.5s-39 -31.5 -63 -41.5s-49.333 -15 -76 -15c-34 0 -65.333 7.5 -94 22.5s-52.667 35.5 -72 61.5c-11.333 16 -19.5 33.5 -24.5 52.5s-7.5 38.167 -7.5 57.5v282c0 14.667 6.66699 22 20 22
c5.33301 0 10.166 -2 14.499 -6s6.5 -9.33301 6.5 -16v-282c0 -14 1.66699 -27.5 5 -40.5s9 -25.5 17 -37.5l294 375c6.66699 6.66699 14.667 9 24 7c4.66699 -1.33301 8 -3.83301 10 -7.5s3 -7.83398 3 -12.501zM246.001 42c21.333 0 41.5 4.00098 60.5 12.001
s35.667 19 50 33s25.666 30.167 33.999 48.5s12.5 38.166 12.5 59.499l-2 226l-265 -336c28.667 -28.667 65.334 -43 110.001 -43z" />
    <glyph glyph-name="V.001" horiz-adv-x="441" 
d="M399 500c3.33301 0 6.66797 -0.666992 10.001 -2s6 -3.66602 8 -6.99902c1.33301 -3.33301 2.33301 -6.5 3 -9.5s0.333984 -6.16699 -0.999023 -9.5l-180 -457c-1.33301 -5.33301 -3.83301 -9.33301 -7.5 -12s-7.83398 -4 -12.501 -4c-8.66699 0 -15 5.33301 -19 16
l-178 457c-2 6.66699 -1.33301 13 2 19c2 3.33301 4.66699 5.66602 8 6.99902s6.66602 2 9.99902 2h357zM369.002 458h-297l147 -381z" />
    <glyph glyph-name="W.001" horiz-adv-x="510" 
d="M434 502c5.33301 0 10 -1.83398 14 -5.50098s6 -8.83398 6 -15.501v-461c0 -3.33301 -1 -6.83301 -3 -10.5s-4.66699 -6.16699 -8 -7.5c-1.33301 -1.33301 -4.33301 -2 -9 -2c-2 0 -4 0.333008 -6 1s-4.33301 1.66699 -7 3l-165 144l-168 -144
c-4 -2.66699 -8.33301 -4 -13 -4s-7.66699 0.666992 -9 2c-3.33301 1.33301 -6 3.83301 -8 7.5s-3 7.16699 -3 10.5v461c0 6.66699 2 11.834 6 15.501s8.66699 5.5 14 5.5s10.333 -1.83301 15 -5.5s7 -8.83398 7 -15.501v-415l125 108l-55 49
c-4.66699 4.66699 -7.33398 9.83398 -8.00098 15.501s1.33301 10.5 6 14.5c3.33301 4.66699 7.83301 7.16699 13.5 7.5s10.834 -1.16699 15.501 -4.5l62 -53l59 50c4.66699 4.66699 10 6.66699 16 6s11 -3.33398 15 -8.00098c3.33301 -4.66699 5 -9.66699 5 -15
s-2.33301 -9.66602 -7 -12.999l-57 -49l125 -108v415c0 6.66699 2.33301 11.834 7 15.501s9.66699 5.5 15 5.5z" />
    <glyph glyph-name="X.001" horiz-adv-x="493" 
d="M439 33c3.33301 -4.66699 4.66602 -9.83398 3.99902 -15.501s-3.33398 -10.167 -8.00098 -13.5c-1.33301 -2 -3.33301 -3.16699 -6 -3.5s-5 -0.5 -7 -0.5s-4.5 0.5 -7.5 1.5s-5.5 2.83301 -7.5 5.5l-159 206l-156 -204c-4 -6 -10 -9 -18 -9c-2 0 -4 0.166992 -6 0.5
s-4.33301 1.5 -7 3.5c-4 3.33301 -6.5 7.83301 -7.5 13.5s0.166992 10.834 3.5 15.501l163 213l-169 219c-3.33301 4.66699 -4.66602 9.66699 -3.99902 15s3.33398 9.66602 8.00098 12.999s9.66699 4.66602 15 3.99902s9.66602 -3.33398 12.999 -8.00098l163 -209l161 209
c3.33301 4.66699 7.66602 7.33398 12.999 8.00098s10.333 -0.666016 15 -3.99902s7.33398 -7.66602 8.00098 -12.999s-0.666016 -10.333 -3.99902 -15l-167 -219z" />
    <glyph glyph-name="Y.001" horiz-adv-x="439" 
d="M391 497c4.66699 2 9.33008 2.16504 13.9971 0.498047s8 -4.16699 10 -7.5c3.33301 -4.66699 4.83301 -9 4.5 -13s-1.83301 -8.33301 -4.5 -13l-174 -219v-226c0 -5.33301 -2 -10 -6 -14s-8.66699 -6 -14 -6c-7.33301 0 -13 2 -17 6s-6 8.66699 -6 14v226l-90 115h-2
l-82 104c-3.33301 4.66699 -4.66602 9.83398 -3.99902 15.501s3.33398 10.834 8.00098 15.501c4.66699 3.33301 9.83398 4.5 15.501 3.5s10.167 -3.83301 13.5 -8.5l73 -90zM335.996 430.998l-177 -67l62 -77z" />
    <glyph glyph-name="Z.001" horiz-adv-x="464" 
d="M408 41c5.33301 0 9.83496 -2.33203 13.502 -6.99902s5.5 -9.66699 5.5 -15s-1.83301 -9.83301 -5.5 -13.5s-8.16699 -5.5 -13.5 -5.5h-177h-174c-10 0 -16 3.66699 -18 11c-2 3.33301 -3 6.83301 -3 10.5s1.66699 7.16699 5 10.5l171 223v203h-155
c-5.33301 0 -10 1.83301 -14 5.5s-6 8.16699 -6 13.5c0 6.66699 2 12 6 16s8.66699 6 14 6h351c3.33301 0 6.66602 -1 9.99902 -3s5.66602 -5.33301 6.99902 -10c2 -3.33301 2.66699 -6.83301 2 -10.5s-2 -6.83398 -4 -9.50098l-170 -225v-200h155zM253.002 309.001l111 149
h-111v-149zM212.002 187.001l-113 -146h113v146z" />
    <glyph glyph-name="A.001" 
d="M36 5c-4 2.66699 -7.33398 6.5 -10.001 11.5s-3 10.167 -1 15.5l62 161h3l110 290c2.66699 3.33301 5.5 6.33301 8.5 9s6.83301 4 11.5 4c10.667 0 17.334 -4.33301 20.001 -13l175 -451c4.66699 -10 3 -17.333 -5 -22c-3.33301 -3.33301 -7.33301 -5.5 -12 -6.5
s-8.66699 -0.5 -12 1.5l-268 151l-53 -140c-2 -3.33301 -4.66699 -6.33301 -8 -9s-7.33301 -4 -12 -4c-2.66699 0 -5.66699 0.666992 -9 2zM133.999 196l221 -124l-135 345z" />
    <glyph glyph-name="D.001" horiz-adv-x="408" 
d="M76 0c-6 0 -10.999 1.99707 -14.999 5.99707s-6 8.66699 -6 14v459v5v3v1h2v3v2h3v3h2v2h2l2 3h3h2h3v1h2h99c25.333 0 49.833 -5.83301 73.5 -17.5s44.5 -27.5 62.5 -47.5c15.333 -17.333 29.666 -41 42.999 -71s20 -68.333 20 -115c0 -24 -2.16699 -46 -6.5 -66
s-9.83301 -37.667 -16.5 -53s-14 -28.666 -22 -39.999s-15.667 -21 -23 -29c-5.33301 -5.33301 -11.333 -10.666 -18 -15.999l-21 -16l-1 -1c-16 -9.33301 -32.333 -16.666 -49 -21.999s-33 -8 -49 -8h-92zM107.001 459.997l157 -377c19.333 16.667 35.333 38.834 48 66.501
s19 61.5 19 101.5s-5.83301 72.667 -17.5 98s-23.167 44.666 -34.5 57.999c-14.667 15.333 -31 28 -49 38s-36.333 15 -55 15h-68zM98.001 42.9971l70 0.000976562c9.33301 0 19 1.16699 29 3.5s20.333 6.16602 31 11.499l-130 316v-331z" />
    <glyph glyph-name="B.001" 
d="M75 1c-5.33301 0 -9.99902 2 -13.999 6s-6 9.33301 -6 16v451c0 6.66699 2 12 6 16s8.66699 6 14 6h182c18.667 0 36 -3.5 52 -10.5s30 -16.5 42 -28.5s21.333 -26.167 28 -42.5s10 -33.833 10 -52.5c0 -21.333 -5 -41 -15 -59s-23.667 -32.667 -41 -44
c19.333 -12.667 35 -29.5 47 -50.5s18 -43.833 18 -68.5c0 -17.333 -3 -33.833 -9 -49.5s-14.333 -29.667 -25 -42s-23.334 -22.5 -38.001 -30.5s-30.334 -13 -47.001 -15c-1.33301 -1.33301 -3.66602 -2 -6.99902 -2h-2h-11h-4h-180zM355.001 140
c0 27.333 -9.16895 50.166 -27.502 68.499s-41.166 27.5 -68.499 27.5h-4h-39l-105 -192h157c24.667 2 45.334 12.333 62.001 31s25 40.334 25 65.001zM345.999 362c0 13.333 -2.5 25.502 -7.5 36.502s-11.167 21.167 -18.5 30.5l-81 -150h20
c26 1.33301 47 9.66602 63 24.999s24 34.666 24 57.999zM97.999 279.002h92l91 170c-10 3.33301 -18.667 5 -26 5h-157v-175zM97.999 106.002l69 130h-69v-130z" />
    <glyph glyph-name="C.001" horiz-adv-x="500" 
d="M281 1c-34 0 -65.833 6.50195 -95.5 19.502s-55.667 30.667 -78 53s-40 48.666 -53 78.999s-19.5 62.5 -19.5 96.5s6.5 66.167 19.5 96.5s30.667 56.833 53 79.5s48.333 40.667 78 54s61.5 20 95.5 20c28 0 55.167 -4.5 81.5 -13.5s50.166 -22.833 71.499 -41.5
c4.66699 -3.33301 7.33398 -7.66602 8.00098 -12.999s-0.666016 -10.666 -3.99902 -15.999c-4 -4.66699 -9 -7.33398 -15 -8.00098s-11.333 0.666016 -16 3.99902c-14.667 12.667 -30.834 22.667 -48.501 30s-36.167 11.666 -55.5 12.999v-411c23.333 4 45.666 11 66.999 21
s40.333 23.667 57 41c4.66699 4.66699 9.83398 7 15.501 7s10.5 -1.66699 14.5 -5c4 -4.66699 6.16699 -10 6.5 -16s-1.16699 -11 -4.5 -15c-24 -24 -51.167 -42.5 -81.5 -55.5s-62.5 -19.5 -96.5 -19.5zM260 454.002c-26 -2.66699 -50.167 -9.66699 -72.5 -21
s-41.666 -26.166 -57.999 -44.499s-29.166 -39.5 -38.499 -63.5s-14 -49.333 -14 -76s4.66699 -51.834 14 -75.501s22.166 -44.667 38.499 -63s35.666 -33.5 57.999 -45.5s46.5 -19.333 72.5 -22v411z" />
    </font>
</defs>
</svg>
