<?xml version="1.0" standalone="no"?>
<!DOCTYPE svg PUBLIC "-//W3C//DTD SVG 1.1//EN" "http://www.w3.org/Graphics/SVG/1.1/DTD/svg11.dtd" >
<svg>
<metadata>
Created by FontForge 20090914 at Tue Oct  4 10:59:22 2016
 By www-data
</metadata>
<defs>
<font id="Parleybold" horiz-adv-x="500" >
  <font-face 
    font-family="Parley bold"
    font-weight="700"
    font-stretch="normal"
    units-per-em="1000"
    panose-1="0 0 0 0 0 0 0 0 0 0"
    ascent="750"
    descent="-250"
    x-height="496.998"
    cap-height="502"
    bbox="3.00098 -1.00195 480 502"
    underline-thickness="50"
    underline-position="-50"
    unicode-range="U+000D-U+007A"
  />
<missing-glyph 
 />
    <glyph glyph-name=".notdef" 
 />
    <glyph glyph-name="NULL" horiz-adv-x="0" 
 />
    <glyph glyph-name="NULL" horiz-adv-x="0" 
 />
    <glyph glyph-name="nonmarkingreturn" unicode="&#xd;" 
 />
    <glyph glyph-name="space" unicode=" " 
 />
    <glyph glyph-name="A" unicode="A" horiz-adv-x="423" 
d="M27 5c-4 2.66699 -7.33398 6.5 -10.001 11.5s-3 10.167 -1 15.5l62 161h3l110 290c2.66699 3.33301 5.5 6.33301 8.5 9s6.83301 4 11.5 4c10.667 0 17.334 -4.33301 20.001 -13l175 -451c4.66699 -10 3 -17.333 -5 -22c-3.33301 -3.33301 -7.33301 -5.5 -12 -6.5
s-8.66699 -0.5 -12 1.5l-268 151l-53 -140c-2 -3.33301 -4.66699 -6.33301 -8 -9s-7.33301 -4 -12 -4c-2.66699 0 -5.66699 0.666992 -9 2zM124.999 196l221 -124l-135 345z" />
    <glyph glyph-name="B" unicode="B" horiz-adv-x="401" 
d="M53 1c-5.33301 0 -9.99902 2 -13.999 6s-6 9.33301 -6 16v451c0 6.66699 2 12 6 16s8.66699 6 14 6h182c18.667 0 36 -3.5 52 -10.5s30 -16.5 42 -28.5s21.333 -26.167 28 -42.5s10 -33.833 10 -52.5c0 -21.333 -5 -41 -15 -59s-23.667 -32.667 -41 -44
c19.333 -12.667 35 -29.5 47 -50.5s18 -43.833 18 -68.5c0 -17.333 -3 -33.833 -9 -49.5s-14.333 -29.667 -25 -42s-23.334 -22.5 -38.001 -30.5s-30.334 -13 -47.001 -15c-1.33301 -1.33301 -3.66602 -2 -6.99902 -2h-2h-11h-4h-180zM333.001 140
c0 27.333 -9.16895 50.166 -27.502 68.499s-41.166 27.5 -68.499 27.5h-4h-39l-105 -192h157c24.667 2 45.334 12.333 62.001 31s25 40.334 25 65.001zM323.999 362c0 13.333 -2.5 25.502 -7.5 36.502s-11.167 21.167 -18.5 30.5l-81 -150h20
c26 1.33301 47 9.66602 63 24.999s24 34.666 24 57.999zM75.999 279.002h92l91 170c-10 3.33301 -18.667 5 -26 5h-157v-175zM75.999 106.002l69 130h-69v-130z" />
    <glyph glyph-name="C" unicode="C" horiz-adv-x="472" 
d="M267 1c-34 0 -65.833 6.50195 -95.5 19.502s-55.667 30.667 -78 53s-40 48.666 -53 78.999s-19.5 62.5 -19.5 96.5s6.5 66.167 19.5 96.5s30.667 56.833 53 79.5s48.333 40.667 78 54s61.5 20 95.5 20c28 0 55.167 -4.5 81.5 -13.5s50.166 -22.833 71.499 -41.5
c4.66699 -3.33301 7.33398 -7.66602 8.00098 -12.999s-0.666016 -10.666 -3.99902 -15.999c-4 -4.66699 -9 -7.33398 -15 -8.00098s-11.333 0.666016 -16 3.99902c-14.667 12.667 -30.834 22.667 -48.501 30s-36.167 11.666 -55.5 12.999v-411c23.333 4 45.666 11 66.999 21
s40.333 23.667 57 41c4.66699 4.66699 9.83398 7 15.501 7s10.5 -1.66699 14.5 -5c4 -4.66699 6.16699 -10 6.5 -16s-1.16699 -11 -4.5 -15c-24 -24 -51.167 -42.5 -81.5 -55.5s-62.5 -19.5 -96.5 -19.5zM246 454.002c-26 -2.66699 -50.167 -9.66699 -72.5 -21
s-41.666 -26.166 -57.999 -44.499s-29.166 -39.5 -38.499 -63.5s-14 -49.333 -14 -76s4.66699 -51.834 14 -75.501s22.166 -44.667 38.499 -63s35.666 -33.5 57.999 -45.5s46.5 -19.333 72.5 -22v411z" />
    <glyph glyph-name="D" unicode="D" horiz-adv-x="372" 
d="M54 0c-6 0 -10.999 1.99707 -14.999 5.99707s-6 8.66699 -6 14v459v5v3v1h2v3v2h3v3h2v2h2l2 3h3h2h3v1h2h99c25.333 0 49.833 -5.83301 73.5 -17.5s44.5 -27.5 62.5 -47.5c15.333 -17.333 29.666 -41 42.999 -71s20 -68.333 20 -115c0 -24 -2.16699 -46 -6.5 -66
s-9.83301 -37.667 -16.5 -53s-14 -28.666 -22 -39.999s-15.667 -21 -23 -29c-5.33301 -5.33301 -11.333 -10.666 -18 -15.999l-21 -16l-1 -1c-16 -9.33301 -32.333 -16.666 -49 -21.999s-33 -8 -49 -8h-92zM85.001 459.997l157 -377c19.333 16.667 35.333 38.834 48 66.501
s19 61.5 19 101.5s-5.83301 72.667 -17.5 98s-23.167 44.666 -34.5 57.999c-14.667 15.333 -31 28 -49 38s-36.333 15 -55 15h-68zM76.001 42.9971l70 0.000976562c9.33301 0 19 1.16699 29 3.5s20.333 6.16602 31 11.499l-130 316v-331z" />
    <glyph glyph-name="E" unicode="E" horiz-adv-x="409" 
d="M33 475l-0.00390625 1.99805c0 7.33301 2 13.166 6 17.499s8.66699 6.5 14 6.5h320c4.66699 0 8.83398 -1.5 12.501 -4.5s6.16699 -7.16699 7.5 -12.5c2.66699 -10.667 0.333984 -18 -6.99902 -22l-192 -145l36 -54c2.66699 -3.33301 4.33398 -7.16602 5.00098 -11.499
s-0.333008 -8.16602 -3 -11.499c-2 -3.33301 -4.66699 -6.16602 -8 -8.49902s-6.66602 -3.5 -9.99902 -3.5h-138v-185h297c5.33301 0 10.333 -2 15 -6s7 -9.66699 7 -17c0 -5.33301 -2.33301 -10 -7 -14s-9.66699 -6 -15 -6h-320c-5.33301 0 -10 2 -14 6s-6 8.66699 -6 14
v453v2zM173.996 270.998l-17 21l-27 -21h44zM97.9961 456.998l71 -104l138 104h-209zM75.9961 282.998l59 45l-59 86v-131z" />
    <glyph glyph-name="F" unicode="F" horiz-adv-x="397" 
d="M33 478l-0.000976562 1.99805c0 14.667 7.33301 22 22 22h319c10.667 0 17.334 -5.33301 20.001 -16c2.66699 -9.33301 0.333984 -16.666 -6.99902 -21.999l-196 -140l40 -60c5.33301 -7.33301 6 -14.666 2 -21.999c-4.66699 -8 -11.334 -12 -20.001 -12h-138v-207
c0 -5.33301 -2 -10.333 -6 -15s-8.66699 -7 -14 -7c-6.66699 0 -12 2.33301 -16 7s-6 9.66699 -6 15v225v7v220v3zM172.999 272.998l-18 26l-35 -26h53zM99.999 459.998l67 -100l140 100h-207zM74.999 292.998l58 42l-58 85v-127z" />
    <glyph glyph-name="G" unicode="G" horiz-adv-x="477" 
d="M447 76c-24 -24 -51 -42.501 -81 -55.501s-62.333 -19.5 -97 -19.5c-34 0 -66.167 6.5 -96.5 19.5s-56.666 30.833 -78.999 53.5s-40 49.167 -53 79.5s-19.5 62.833 -19.5 97.5c0 28.667 4.5 56 13.5 82s21.5 49.667 37.5 71c1.33301 0 2 0.333008 2 1v1v2
c23.333 28.667 51.833 51.334 85.5 68.001s70.167 25 109.5 25c58 0 109.667 -17.667 155 -53c4 -3.33301 6.33301 -8 7 -14s-1 -11 -5 -15c-3.33301 -5.33301 -8 -8.33301 -14 -9s-11 0.666016 -15 3.99902c-39.333 30 -82 45 -128 45
c-28.667 0 -55.834 -5.83301 -81.501 -17.5s-48.167 -27.5 -67.5 -47.5l199 -172h113c5.33301 0 10 -2.33301 14 -7s6 -9.66699 6 -15v-111c0 -3.33301 -1.66699 -7.66602 -5 -12.999zM269 42.999c51.333 0 96 16 134 48l-309 271c-20.667 -35.333 -31 -72.333 -31 -111
c0 -28.667 5.5 -55.667 16.5 -81s25.833 -47.333 44.5 -66s40.5 -33.5 65.5 -44.5s51.5 -16.5 79.5 -16.5zM410 179.999h-42l42 -40v40z" />
    <glyph glyph-name="H" unicode="H" horiz-adv-x="467" 
d="M411 0c-5.33301 0 -10 2 -14 6s-6 9.33301 -6 16v312l-315 -201v-111c0 -6.66699 -2 -12 -6 -16s-9 -6 -15 -6c-5.33301 0 -10.333 2 -15 6s-7 9.33301 -7 16v458c0 5.33301 2.33301 10 7 14s9.66699 6 15 6c6 0 11 -2 15 -6s6 -8.66699 6 -14v-298l315 201v97
c0 5.33301 2 10 6 14s8.66699 6 14 6s10.333 -2 15 -6s7 -8.66699 7 -14v-458c0 -6.66699 -2.33301 -12 -7 -16s-9.66699 -6 -15 -6z" />
    <glyph glyph-name="I" unicode="I" horiz-adv-x="171" 
d="M63 266v14h-27c-5.33301 0 -10 2.33301 -14 7s-6 9.66699 -6 15s2 10 6 14s8.66699 6 14 6h27v160c0 5.33301 2 10 6 14s8.66699 6 14 6c6.66699 0 12 -2 16 -6s6 -8.66699 6 -14v-160h29c5.33301 0 10.333 -2 15 -6s7 -8.66699 7 -14s-2.33301 -10.333 -7 -15
s-9.66699 -7 -15 -7h-29v-14h38c5.33301 0 10.333 -2.33301 15 -7s7 -9.66699 7 -15s-2.33301 -9.83301 -7 -13.5s-9.66699 -5.5 -15 -5.5h-38v-205c0 -5.33301 -2 -10 -6 -14s-9.33301 -6 -16 -6c-5.33301 0 -10 2 -14 6s-6 8.66699 -6 14v205h-34
c-14.667 0 -22 6.33301 -22 19c0 5.33301 2 10.333 6 15s9.33301 7 16 7h34z" />
    <glyph glyph-name="J" unicode="J" horiz-adv-x="299" 
d="M26 0l-2.99902 -0.000976562h-3c0 1.33301 -0.666992 2 -2 2h-2c-1.33301 0 -2 0.333008 -2 1v1c-1.33301 0 -2 1 -2 3c-1.33301 0 -2 0.666992 -2 2c-2 0 -3 0.666992 -3 2h-1c-0.666992 0 -1 0.666992 -1 2v2v2l-2 3v3v91c0 7.33301 3.66699 13 11 17
c2 2 5 3.16699 9 3.5s7.66699 -0.166992 11 -1.5l58 -25l131 112v260c0 5.33301 2 9.83301 6 13.5s8.66699 5.5 14 5.5c14.667 0 22 -6.33301 22 -19v-457v-3v-3v-2c-1.33301 -1.33301 -2 -2.66602 -2 -3.99902l-2 -2l-2 -2l-3 -3
c-0.666992 0 -1.33398 -0.333008 -2.00098 -1v-1h-2h-2h-1c-0.666992 0 -1 -0.666992 -1 -2h-2h-3h-217zM56.001 77.999l-11 4v-13zM138.001 41.999l-37 18l-20 -18h57zM223.001 164.999l-87 -74l87 -38v112z" />
    <glyph glyph-name="K" unicode="K" horiz-adv-x="324" 
d="M257 487c3.33301 4 7.83301 7.00195 13.5 9.00195s10.834 1.33301 15.501 -2c5.33301 -3.33301 8.5 -8 9.5 -14s-0.166992 -11 -3.5 -15l-156 -234l154 -196c4 -4.66699 5.66699 -9.83398 5 -15.501s-3.33398 -10.834 -8.00098 -15.501
c-5.33301 -2.66699 -9.66602 -4 -12.999 -4c-6.66699 0 -12.334 3 -17.001 9l-145 186l-38 -52v-121c0 -5.33301 -1.83301 -10.333 -5.5 -15s-8.16699 -7 -13.5 -7s-10.333 2.33301 -15 7s-7 9.66699 -7 15v454c0 5.33301 2.33301 9.83301 7 13.5s9.66699 5.5 15 5.5
c12.667 0 19 -6.33301 19 -19v-259l18 24z" />
    <glyph glyph-name="L" unicode="L" horiz-adv-x="296" 
d="M53 499c5.33301 0 10.334 -1.99902 15.001 -5.99902s7 -9.33301 7 -16v-281l211 -160c3.33301 -2 5.5 -5.33301 6.5 -10s0.833008 -8.66699 -0.5 -12c-1.33301 -4.66699 -3.83301 -8.33398 -7.5 -11.001s-7.83398 -4 -12.501 -4h-219c-5.33301 0 -10 2 -14 6
s-6 9.33301 -6 16v166v290c0 6.66699 2 12 6 16s8.66699 6 14 6zM75.001 145.001v-104h135z" />
    <glyph glyph-name="M" unicode="M" horiz-adv-x="463" 
d="M407 1c-5.33301 0 -9.83203 2.33398 -13.499 7.00098s-5.5 9.66699 -5.5 15v139l-314 270v-409c0 -5.33301 -1.83301 -10.333 -5.5 -15s-8.83398 -7 -15.501 -7c-5.33301 0 -10 2.33301 -14 7s-6 9.66699 -6 15v455c0 8.66699 3.66699 15 11 19c10 2 18 0.666992 24 -4
l163 -142l163 142c6 5.33301 13.333 6.66602 22 3.99902c8.66699 -4 13 -10.333 13 -19v-455c0 -5.33301 -2 -10.333 -6 -15s-9.33301 -7 -16 -7zM388.001 216.001v216l-127 -107z" />
    <glyph glyph-name="N" unicode="N" horiz-adv-x="460" 
d="M245 197l-178 -183c-4 -4 -8.66699 -6 -14 -6c-3.33301 0 -5.66602 0.666992 -6.99902 2c-8.66699 2 -13 7.66699 -13 17v451v3v2v2v2h2v2v3h2v1h3v2h2v2h2h2l2 2h3h2h1h2h3v-2h2h2v-2h2l2 -2l3 -1l315 -409v395c0 7.33301 2 12.666 6 15.999s8.66699 5 14 5
s10.166 -1.66699 14.499 -5s6.5 -8.66602 6.5 -15.999v-456c0 -4 -1.5 -7.83301 -4.5 -11.5s-6.83301 -6.16699 -11.5 -7.5c-1.33301 -1.33301 -3 -2 -5 -2c-8 0 -13.333 3 -16 9zM218 230l-144 187v-338z" />
    <glyph glyph-name="O" unicode="O" horiz-adv-x="469" 
d="M19 217c0 29.333 5.66699 57 17 83s26.666 48.667 45.999 68s42.333 34.666 69 45.999s55 17 85 17c29.333 0 57 -5.66699 83 -17s48.667 -26.666 68 -45.999s34.666 -42 45.999 -68s17 -53.667 17 -83c0 -30 -5.66699 -58.167 -17 -84.5s-26.666 -49.333 -45.999 -69
s-42 -35.167 -68 -46.5s-53.667 -17 -83 -17c-30 0 -58.333 5.66699 -85 17s-49.667 26.833 -69 46.5s-34.666 42.667 -45.999 69s-17 54.5 -17 84.5zM236 389c-24 0 -46.667 -4.5 -68 -13.5s-39.833 -21.167 -55.5 -36.5s-28.167 -33.5 -37.5 -54.5s-14 -43.5 -14 -67.5
s4.66699 -46.667 14 -68s21.833 -39.833 37.5 -55.5s34.167 -28.167 55.5 -37.5s44 -14 68 -14c23.333 0 45.333 4.66699 66 14s38.834 21.833 54.501 37.5s28.167 34.167 37.5 55.5s14 44 14 68s-4.66699 46.5 -14 67.5s-21.833 39.167 -37.5 54.5
s-33.834 27.5 -54.501 36.5s-42.667 13.5 -66 13.5zM108 478c0 5.33301 2 10 6 14s9.66699 6 17 6h207c6 0 11.333 -2 16 -6s7 -8.66699 7 -14s-2.33301 -10.333 -7 -15s-10 -7 -16 -7h-207c-7.33301 0 -13 2.33301 -17 7s-6 9.66699 -6 15z" />
    <glyph glyph-name="P" unicode="P" horiz-adv-x="307" 
d="M53 -1c-5.33301 0 -10.001 1.99902 -14.001 5.99902s-6 8.66699 -6 14v458c0 5.33301 2 10 6 14s8.66699 6 14 6h118c21.333 0 40.833 -4.66699 58.5 -14s32.834 -21.666 45.501 -36.999c1.33301 0 2 -0.666992 2 -2c18 -23.333 27 -51 27 -83
c0 -18 -3.33301 -34.5 -10 -49.5s-16 -28 -28 -39s-26.167 -19.667 -42.5 -26s-33.833 -9.5 -52.5 -9.5h-96v-218c0 -5.33301 -2.33301 -10 -7 -14s-9.66699 -6 -15 -6zM261.999 360.999c0 14.667 -2.33301 28 -7 40l-144 -122h60c26.667 0 48.5 7.83301 65.5 23.5
s25.5 35.167 25.5 58.5zM74.999 302.999l153.999 132c-15.333 12.667 -34.666 19 -57.999 19h-96v-151z" />
    <glyph glyph-name="Q" unicode="Q" horiz-adv-x="508" 
d="M460 -1c-8.66699 0 -15 2.99805 -19 8.99805l-60 67c-17.333 -13.333 -37.333 -23.666 -60 -30.999s-46.667 -11 -72 -11c-32 0 -61.833 6.16699 -89.5 18.5s-52 29 -73 50s-37.5 45.667 -49.5 74s-18 58.5 -18 90.5c0 34 6.83301 65.5 20.5 94.5s31.5 54.167 53.5 75.5
h1l1 2h2c20 17.333 43 31.333 69 42s53.667 16 83 16c32 0 62 -6 90 -18s52.5 -28.5 73.5 -49.5s37.5 -45.333 49.5 -73s18 -57.5 18 -89.5s-5.66699 -61.833 -17 -89.5s-27.333 -51.834 -48 -72.501l60 -69c3.33301 -5.33301 5 -10.666 5 -15.999
s-2.33301 -9.66602 -7 -12.999c-4 -4.66699 -8.33301 -7 -13 -7zM249 74.998c19.333 0 37.832 3.16504 55.499 9.49805s34.5 14.5 50.5 24.5l-246 279c-15.333 -15.333 -27 -33.666 -35 -54.999s-12 -43.666 -12 -66.999c0 -26.667 4.83301 -51.5 14.5 -74.5
s22.834 -43.167 39.501 -60.5s36.5 -31 59.5 -41s47.5 -15 73.5 -15zM384.999 134.996c16 17.333 28.667 36.999 38 58.999s14 46 14 72c0 25.333 -5 49.333 -15 72s-23.5 42.5 -40.5 59.5s-36.833 30.5 -59.5 40.5s-47 15 -73 15c-20 0 -39.333 -3.16699 -58 -9.5
s-35.667 -15.166 -51 -26.499z" />
    <glyph glyph-name="R" unicode="R" horiz-adv-x="327" 
d="M191 497c16 -2 30.832 -7.00098 44.499 -15.001s25.5 -17.833 35.5 -29.5s18 -25.167 24 -40.5s9 -31.666 9 -48.999c0 -34 -11 -62.667 -33 -86s-50 -36.666 -84 -39.999l95 -209c2.66699 -5.33301 3 -10.333 1 -15s-5.66699 -8.33398 -11 -11.001
c-1.33301 -1.33301 -2.83301 -2 -4.5 -2h-4.5c-3.33301 0 -6.66602 1 -9.99902 3s-5.66602 4.66699 -6.99902 8l-106 226h-67v-217c0 -5.33301 -1.83301 -10 -5.5 -14s-8.16699 -6 -13.5 -6c-6.66699 0 -12 2 -16 6s-6 8.66699 -6 14v239v2v2l2 3v2v2l52 82l-52 116v3
c-1.33301 0 -2 0.666992 -2 2v2v2v2v2v3h2v2v2h2v2l3 2h1l1 2h2v3h2h2h2c2 0 3 0.666992 3 2h2h120c3.33301 0 6.16602 -0.333008 8.49902 -1s4.5 -1 6.5 -1h2zM111.999 394.999l39 63h-67zM120.999 278.999l-13 28l-17 -28h30zM173.999 278.999
c26 0 47.333 7.66797 64 23.001s25 35.666 25 60.999c0 21.333 -6.16699 40.333 -18.5 57s-27.833 27.667 -46.5 33l-64 -103l33 -71h7z" />
    <glyph glyph-name="S" unicode="S" horiz-adv-x="379" 
d="M307 41c-33.333 -27.333 -75.3291 -41.0059 -125.996 -41.0059h-148c-5.33301 0 -9.66602 1.66699 -12.999 5s-5 7.66602 -5 12.999c0 6.66699 1.66699 11.834 5 15.501s7.66602 5.5 12.999 5.5h148c20 0 38.5 2.66699 55.5 8s31.5 12.833 43.5 22.5
s21.5 21.334 28.5 35.001s10.5 28.834 10.5 45.501c0 10.667 -1.5 21.334 -4.5 32.001s-9.33301 20.834 -19 30.501s-23.834 18.834 -42.501 27.501s-43.334 16.334 -74.001 23.001c-3.33301 0 -6 0.333008 -8 1s-4 1 -6 1c-52 11.333 -88.667 26.166 -110 44.499
s-32 43.833 -32 76.5s13 59.334 39 80.001c27.333 19.333 59.666 29 96.999 29h131c9.33301 0 15.666 -2.66699 18.999 -8c2.66699 -8.66699 2 -15.667 -2 -21l-107 -168c19.333 -4.66699 38.5 -10.5 57.5 -17.5s36 -16.167 51 -27.5s27 -25.333 36 -42s13.5 -37 13.5 -61
c0 -44.667 -17 -81 -51 -109zM255.004 455.994h-96.001c-28 0 -51.167 -6.33301 -69.5 -19s-27.5 -29.667 -27.5 -51c0 -8 0.833008 -15.5 2.5 -22.5s5.83398 -13.833 12.501 -20.5s16.667 -13 30 -19s31.333 -12 54 -18z" />
    <glyph glyph-name="T" unicode="T" horiz-adv-x="301" 
d="M173 20c0 -13.333 -7.33301 -20 -22 -20c-5.33301 -0 -10 1.83301 -14 5.5s-6 8.5 -6 14.5v372h-82c-5.33301 0 -10 2.16699 -14 6.5s-6 9.16602 -6 14.499c0 6 2 10.833 6 14.5s8.66699 5.5 14 5.5h82v25h-100c-5.33301 0 -10.333 2 -15 6s-7 9.33301 -7 16
c0 5.33301 2.33301 10 7 14s9.66699 6 15 6h241c6 0 10.833 -2 14.5 -6s5.5 -8.66699 5.5 -14c0 -14.667 -6.66699 -22 -20 -22h-99v-25h81c14.667 0 22 -6.66699 22 -20c0 -5.33301 -1.83301 -10.166 -5.5 -14.499s-9.16699 -6.5 -16.5 -6.5h-81v-372v0z" />
    <glyph glyph-name="U" unicode="U" horiz-adv-x="454" 
d="M425 195c0 -27.333 -5.33203 -52.666 -15.999 -75.999s-25 -43.833 -43 -61.5s-39 -31.5 -63 -41.5s-49.333 -15 -76 -15c-34 0 -65.333 7.5 -94 22.5s-52.667 35.5 -72 61.5c-11.333 16 -19.5 33.5 -24.5 52.5s-7.5 38.167 -7.5 57.5v282c0 14.667 6.66699 22 20 22
c5.33301 0 10.166 -2 14.499 -6s6.5 -9.33301 6.5 -16v-282c0 -14 1.66699 -27.5 5 -40.5s9 -25.5 17 -37.5l294 375c6.66699 6.66699 14.667 9 24 7c4.66699 -1.33301 8 -3.83301 10 -7.5s3 -7.83398 3 -12.501zM227.001 42c21.333 0 41.5 4.00098 60.5 12.001
s35.667 19 50 33s25.666 30.167 33.999 48.5s12.5 38.166 12.5 59.499l-2 226l-265 -336c28.667 -28.667 65.334 -43 110.001 -43z" />
    <glyph glyph-name="V" unicode="V" horiz-adv-x="425" 
d="M391 500c3.33301 0 6.66797 -0.666992 10.001 -2s6 -3.66602 8 -6.99902c1.33301 -3.33301 2.33301 -6.5 3 -9.5s0.333984 -6.16699 -0.999023 -9.5l-180 -457c-1.33301 -5.33301 -3.83301 -9.33301 -7.5 -12s-7.83398 -4 -12.501 -4c-8.66699 0 -15 5.33301 -19 16
l-178 457c-2 6.66699 -1.33301 13 2 19c2 3.33301 4.66699 5.66602 8 6.99902s6.66602 2 9.99902 2h357zM361.002 458h-297l147 -381z" />
    <glyph glyph-name="W" unicode="W" horiz-adv-x="466" 
d="M412 502c5.33301 0 10 -1.83398 14 -5.50098s6 -8.83398 6 -15.501v-461c0 -3.33301 -1 -6.83301 -3 -10.5s-4.66699 -6.16699 -8 -7.5c-1.33301 -1.33301 -4.33301 -2 -9 -2c-2 0 -4 0.333008 -6 1s-4.33301 1.66699 -7 3l-165 144l-168 -144
c-4 -2.66699 -8.33301 -4 -13 -4s-7.66699 0.666992 -9 2c-3.33301 1.33301 -6 3.83301 -8 7.5s-3 7.16699 -3 10.5v461c0 6.66699 2 11.834 6 15.501s8.66699 5.5 14 5.5s10.333 -1.83301 15 -5.5s7 -8.83398 7 -15.501v-415l125 108l-55 49
c-4.66699 4.66699 -7.33398 9.83398 -8.00098 15.501s1.33301 10.5 6 14.5c3.33301 4.66699 7.83301 7.16699 13.5 7.5s10.834 -1.16699 15.501 -4.5l62 -53l59 50c4.66699 4.66699 10 6.66699 16 6s11 -3.33398 15 -8.00098c3.33301 -4.66699 5 -9.66699 5 -15
s-2.33301 -9.66602 -7 -12.999l-57 -49l125 -108v415c0 6.66699 2.33301 11.834 7 15.501s9.66699 5.5 15 5.5z" />
    <glyph glyph-name="X" unicode="X" horiz-adv-x="456" 
d="M422 33c3.33301 -4.66699 4.66602 -9.83398 3.99902 -15.501s-3.33398 -10.167 -8.00098 -13.5c-1.33301 -2 -3.33301 -3.16699 -6 -3.5s-5 -0.5 -7 -0.5s-4.5 0.5 -7.5 1.5s-5.5 2.83301 -7.5 5.5l-159 206l-156 -204c-4 -6 -10 -9 -18 -9c-2 0 -4 0.166992 -6 0.5
s-4.33301 1.5 -7 3.5c-4 3.33301 -6.5 7.83301 -7.5 13.5s0.166992 10.834 3.5 15.501l163 213l-169 219c-3.33301 4.66699 -4.66602 9.66699 -3.99902 15s3.33398 9.66602 8.00098 12.999s9.66699 4.66602 15 3.99902s9.66602 -3.33398 12.999 -8.00098l163 -209l161 209
c3.33301 4.66699 7.66602 7.33398 12.999 8.00098s10.333 -0.666016 15 -3.99902s7.33398 -7.66602 8.00098 -12.999s-0.666016 -10.333 -3.99902 -15l-167 -219z" />
    <glyph glyph-name="Y" unicode="Y" horiz-adv-x="427" 
d="M385 497c4.66699 2 9.33008 2.16504 13.9971 0.498047s8 -4.16699 10 -7.5c3.33301 -4.66699 4.83301 -9 4.5 -13s-1.83301 -8.33301 -4.5 -13l-174 -219v-226c0 -5.33301 -2 -10 -6 -14s-8.66699 -6 -14 -6c-7.33301 0 -13 2 -17 6s-6 8.66699 -6 14v226l-90 115h-2
l-82 104c-3.33301 4.66699 -4.66602 9.83398 -3.99902 15.501s3.33398 10.834 8.00098 15.501c4.66699 3.33301 9.83398 4.5 15.501 3.5s10.167 -3.83301 13.5 -8.5l73 -90zM329.996 430.998l-177 -67l62 -77z" />
    <glyph glyph-name="Z" unicode="Z" horiz-adv-x="436" 
d="M394 41c5.33301 0 9.83496 -2.33203 13.502 -6.99902s5.5 -9.66699 5.5 -15s-1.83301 -9.83301 -5.5 -13.5s-8.16699 -5.5 -13.5 -5.5h-177h-174c-10 0 -16 3.66699 -18 11c-2 3.33301 -3 6.83301 -3 10.5s1.66699 7.16699 5 10.5l171 223v203h-155
c-5.33301 0 -10 1.83301 -14 5.5s-6 8.16699 -6 13.5c0 6.66699 2 12 6 16s8.66699 6 14 6h351c3.33301 0 6.66602 -1 9.99902 -3s5.66602 -5.33301 6.99902 -10c2 -3.33301 2.66699 -6.83301 2 -10.5s-2 -6.83398 -4 -9.50098l-170 -225v-200h155zM239.002 309.001l111 149
h-111v-149zM198.002 187.001l-113 -146h113v146z" />
    <glyph glyph-name="a" unicode="a" horiz-adv-x="423" 
d="M27 5c-4 2.66699 -7.33398 6.5 -10.001 11.5s-3 10.167 -1 15.5l62 161h3l110 290c2.66699 3.33301 5.5 6.33301 8.5 9s6.83301 4 11.5 4c10.667 0 17.334 -4.33301 20.001 -13l175 -451c4.66699 -10 3 -17.333 -5 -22c-3.33301 -3.33301 -7.33301 -5.5 -12 -6.5
s-8.66699 -0.5 -12 1.5l-268 151l-53 -140c-2 -3.33301 -4.66699 -6.33301 -8 -9s-7.33301 -4 -12 -4c-2.66699 0 -5.66699 0.666992 -9 2zM124.999 196l221 -124l-135 345z" />
    <glyph glyph-name="b" unicode="b" horiz-adv-x="401" 
d="M53 1c-5.33301 0 -9.99902 2 -13.999 6s-6 9.33301 -6 16v451c0 6.66699 2 12 6 16s8.66699 6 14 6h182c18.667 0 36 -3.5 52 -10.5s30 -16.5 42 -28.5s21.333 -26.167 28 -42.5s10 -33.833 10 -52.5c0 -21.333 -5 -41 -15 -59s-23.667 -32.667 -41 -44
c19.333 -12.667 35 -29.5 47 -50.5s18 -43.833 18 -68.5c0 -17.333 -3 -33.833 -9 -49.5s-14.333 -29.667 -25 -42s-23.334 -22.5 -38.001 -30.5s-30.334 -13 -47.001 -15c-1.33301 -1.33301 -3.66602 -2 -6.99902 -2h-2h-11h-4h-180zM333.001 140
c0 27.333 -9.16895 50.166 -27.502 68.499s-41.166 27.5 -68.499 27.5h-4h-39l-105 -192h157c24.667 2 45.334 12.333 62.001 31s25 40.334 25 65.001zM323.999 362c0 13.333 -2.5 25.502 -7.5 36.502s-11.167 21.167 -18.5 30.5l-81 -150h20
c26 1.33301 47 9.66602 63 24.999s24 34.666 24 57.999zM75.999 279.002h92l91 170c-10 3.33301 -18.667 5 -26 5h-157v-175zM75.999 106.002l69 130h-69v-130z" />
    <glyph glyph-name="c" unicode="c" horiz-adv-x="472" 
d="M267 1c-34 0 -65.833 6.50195 -95.5 19.502s-55.667 30.667 -78 53s-40 48.666 -53 78.999s-19.5 62.5 -19.5 96.5s6.5 66.167 19.5 96.5s30.667 56.833 53 79.5s48.333 40.667 78 54s61.5 20 95.5 20c28 0 55.167 -4.5 81.5 -13.5s50.166 -22.833 71.499 -41.5
c4.66699 -3.33301 7.33398 -7.66602 8.00098 -12.999s-0.666016 -10.666 -3.99902 -15.999c-4 -4.66699 -9 -7.33398 -15 -8.00098s-11.333 0.666016 -16 3.99902c-14.667 12.667 -30.834 22.667 -48.501 30s-36.167 11.666 -55.5 12.999v-411c23.333 4 45.666 11 66.999 21
s40.333 23.667 57 41c4.66699 4.66699 9.83398 7 15.501 7s10.5 -1.66699 14.5 -5c4 -4.66699 6.16699 -10 6.5 -16s-1.16699 -11 -4.5 -15c-24 -24 -51.167 -42.5 -81.5 -55.5s-62.5 -19.5 -96.5 -19.5zM246 454.002c-26 -2.66699 -50.167 -9.66699 -72.5 -21
s-41.666 -26.166 -57.999 -44.499s-29.166 -39.5 -38.499 -63.5s-14 -49.333 -14 -76s4.66699 -51.834 14 -75.501s22.166 -44.667 38.499 -63s35.666 -33.5 57.999 -45.5s46.5 -19.333 72.5 -22v411z" />
    <glyph glyph-name="d" unicode="d" horiz-adv-x="372" 
d="M54 0c-6 0 -10.999 1.99707 -14.999 5.99707s-6 8.66699 -6 14v459v5v3v1h2v3v2h3v3h2v2h2l2 3h3h2h3v1h2h99c25.333 0 49.833 -5.83301 73.5 -17.5s44.5 -27.5 62.5 -47.5c15.333 -17.333 29.666 -41 42.999 -71s20 -68.333 20 -115c0 -24 -2.16699 -46 -6.5 -66
s-9.83301 -37.667 -16.5 -53s-14 -28.666 -22 -39.999s-15.667 -21 -23 -29c-5.33301 -5.33301 -11.333 -10.666 -18 -15.999l-21 -16l-1 -1c-16 -9.33301 -32.333 -16.666 -49 -21.999s-33 -8 -49 -8h-92zM85.001 459.997l157 -377c19.333 16.667 35.333 38.834 48 66.501
s19 61.5 19 101.5s-5.83301 72.667 -17.5 98s-23.167 44.666 -34.5 57.999c-14.667 15.333 -31 28 -49 38s-36.333 15 -55 15h-68zM76.001 42.9971l70 0.000976562c9.33301 0 19 1.16699 29 3.5s20.333 6.16602 31 11.499l-130 316v-331z" />
    <glyph glyph-name="e" unicode="e" horiz-adv-x="409" 
d="M33 475l-0.00390625 1.99805c0 7.33301 2 13.166 6 17.499s8.66699 6.5 14 6.5h320c4.66699 0 8.83398 -1.5 12.501 -4.5s6.16699 -7.16699 7.5 -12.5c2.66699 -10.667 0.333984 -18 -6.99902 -22l-192 -145l36 -54c2.66699 -3.33301 4.33398 -7.16602 5.00098 -11.499
s-0.333008 -8.16602 -3 -11.499c-2 -3.33301 -4.66699 -6.16602 -8 -8.49902s-6.66602 -3.5 -9.99902 -3.5h-138v-185h297c5.33301 0 10.333 -2 15 -6s7 -9.66699 7 -17c0 -5.33301 -2.33301 -10 -7 -14s-9.66699 -6 -15 -6h-320c-5.33301 0 -10 2 -14 6s-6 8.66699 -6 14
v453v2zM173.996 270.998l-17 21l-27 -21h44zM97.9961 456.998l71 -104l138 104h-209zM75.9961 282.998l59 45l-59 86v-131z" />
    <glyph glyph-name="f" unicode="f" horiz-adv-x="397" 
d="M33 478l-0.000976562 1.99805c0 14.667 7.33301 22 22 22h319c10.667 0 17.334 -5.33301 20.001 -16c2.66699 -9.33301 0.333984 -16.666 -6.99902 -21.999l-196 -140l40 -60c5.33301 -7.33301 6 -14.666 2 -21.999c-4.66699 -8 -11.334 -12 -20.001 -12h-138v-207
c0 -5.33301 -2 -10.333 -6 -15s-8.66699 -7 -14 -7c-6.66699 0 -12 2.33301 -16 7s-6 9.66699 -6 15v225v7v220v3zM172.999 272.998l-18 26l-35 -26h53zM99.999 459.998l67 -100l140 100h-207zM74.999 292.998l58 42l-58 85v-127z" />
    <glyph glyph-name="g" unicode="g" horiz-adv-x="477" 
d="M447 76c-24 -24 -51 -42.501 -81 -55.501s-62.333 -19.5 -97 -19.5c-34 0 -66.167 6.5 -96.5 19.5s-56.666 30.833 -78.999 53.5s-40 49.167 -53 79.5s-19.5 62.833 -19.5 97.5c0 28.667 4.5 56 13.5 82s21.5 49.667 37.5 71c1.33301 0 2 0.333008 2 1v1v2
c23.333 28.667 51.833 51.334 85.5 68.001s70.167 25 109.5 25c58 0 109.667 -17.667 155 -53c4 -3.33301 6.33301 -8 7 -14s-1 -11 -5 -15c-3.33301 -5.33301 -8 -8.33301 -14 -9s-11 0.666016 -15 3.99902c-39.333 30 -82 45 -128 45
c-28.667 0 -55.834 -5.83301 -81.501 -17.5s-48.167 -27.5 -67.5 -47.5l199 -172h113c5.33301 0 10 -2.33301 14 -7s6 -9.66699 6 -15v-111c0 -3.33301 -1.66699 -7.66602 -5 -12.999zM269 42.999c51.333 0 96 16 134 48l-309 271c-20.667 -35.333 -31 -72.333 -31 -111
c0 -28.667 5.5 -55.667 16.5 -81s25.833 -47.333 44.5 -66s40.5 -33.5 65.5 -44.5s51.5 -16.5 79.5 -16.5zM410 179.999h-42l42 -40v40z" />
    <glyph glyph-name="h" unicode="h" horiz-adv-x="467" 
d="M411 0c-5.33301 0 -10 2 -14 6s-6 9.33301 -6 16v312l-315 -201v-111c0 -6.66699 -2 -12 -6 -16s-9 -6 -15 -6c-5.33301 0 -10.333 2 -15 6s-7 9.33301 -7 16v458c0 5.33301 2.33301 10 7 14s9.66699 6 15 6c6 0 11 -2 15 -6s6 -8.66699 6 -14v-298l315 201v97
c0 5.33301 2 10 6 14s8.66699 6 14 6s10.333 -2 15 -6s7 -8.66699 7 -14v-458c0 -6.66699 -2.33301 -12 -7 -16s-9.66699 -6 -15 -6z" />
    <glyph glyph-name="i" unicode="i" horiz-adv-x="171" 
d="M63 266v14h-27c-5.33301 0 -10 2.33301 -14 7s-6 9.66699 -6 15s2 10 6 14s8.66699 6 14 6h27v160c0 5.33301 2 10 6 14s8.66699 6 14 6c6.66699 0 12 -2 16 -6s6 -8.66699 6 -14v-160h29c5.33301 0 10.333 -2 15 -6s7 -8.66699 7 -14s-2.33301 -10.333 -7 -15
s-9.66699 -7 -15 -7h-29v-14h38c5.33301 0 10.333 -2.33301 15 -7s7 -9.66699 7 -15s-2.33301 -9.83301 -7 -13.5s-9.66699 -5.5 -15 -5.5h-38v-205c0 -5.33301 -2 -10 -6 -14s-9.33301 -6 -16 -6c-5.33301 0 -10 2 -14 6s-6 8.66699 -6 14v205h-34
c-14.667 0 -22 6.33301 -22 19c0 5.33301 2 10.333 6 15s9.33301 7 16 7h34z" />
    <glyph glyph-name="j" unicode="j" horiz-adv-x="299" 
d="M26 0l-2.99902 -0.000976562h-3c0 1.33301 -0.666992 2 -2 2h-2c-1.33301 0 -2 0.333008 -2 1v1c-1.33301 0 -2 1 -2 3c-1.33301 0 -2 0.666992 -2 2c-2 0 -3 0.666992 -3 2h-1c-0.666992 0 -1 0.666992 -1 2v2v2l-2 3v3v91c0 7.33301 3.66699 13 11 17
c2 2 5 3.16699 9 3.5s7.66699 -0.166992 11 -1.5l58 -25l131 112v260c0 5.33301 2 9.83301 6 13.5s8.66699 5.5 14 5.5c14.667 0 22 -6.33301 22 -19v-457v-3v-3v-2c-1.33301 -1.33301 -2 -2.66602 -2 -3.99902l-2 -2l-2 -2l-3 -3
c-0.666992 0 -1.33398 -0.333008 -2.00098 -1v-1h-2h-2h-1c-0.666992 0 -1 -0.666992 -1 -2h-2h-3h-217zM56.001 77.999l-11 4v-13zM138.001 41.999l-37 18l-20 -18h57zM223.001 164.999l-87 -74l87 -38v112z" />
    <glyph glyph-name="k" unicode="k" horiz-adv-x="324" 
d="M257 487c3.33301 4 7.83301 7.00195 13.5 9.00195s10.834 1.33301 15.501 -2c5.33301 -3.33301 8.5 -8 9.5 -14s-0.166992 -11 -3.5 -15l-156 -234l154 -196c4 -4.66699 5.66699 -9.83398 5 -15.501s-3.33398 -10.834 -8.00098 -15.501
c-5.33301 -2.66699 -9.66602 -4 -12.999 -4c-6.66699 0 -12.334 3 -17.001 9l-145 186l-38 -52v-121c0 -5.33301 -1.83301 -10.333 -5.5 -15s-8.16699 -7 -13.5 -7s-10.333 2.33301 -15 7s-7 9.66699 -7 15v454c0 5.33301 2.33301 9.83301 7 13.5s9.66699 5.5 15 5.5
c12.667 0 19 -6.33301 19 -19v-259l18 24z" />
    <glyph glyph-name="l" unicode="l" horiz-adv-x="296" 
d="M53 499c5.33301 0 10.334 -1.99902 15.001 -5.99902s7 -9.33301 7 -16v-281l211 -160c3.33301 -2 5.5 -5.33301 6.5 -10s0.833008 -8.66699 -0.5 -12c-1.33301 -4.66699 -3.83301 -8.33398 -7.5 -11.001s-7.83398 -4 -12.501 -4h-219c-5.33301 0 -10 2 -14 6
s-6 9.33301 -6 16v166v290c0 6.66699 2 12 6 16s8.66699 6 14 6zM75.001 145.001v-104h135z" />
    <glyph glyph-name="m" unicode="m" horiz-adv-x="463" 
d="M407 1c-5.33301 0 -9.83203 2.33398 -13.499 7.00098s-5.5 9.66699 -5.5 15v139l-314 270v-409c0 -5.33301 -1.83301 -10.333 -5.5 -15s-8.83398 -7 -15.501 -7c-5.33301 0 -10 2.33301 -14 7s-6 9.66699 -6 15v455c0 8.66699 3.66699 15 11 19c10 2 18 0.666992 24 -4
l163 -142l163 142c6 5.33301 13.333 6.66602 22 3.99902c8.66699 -4 13 -10.333 13 -19v-455c0 -5.33301 -2 -10.333 -6 -15s-9.33301 -7 -16 -7zM388.001 216.001v216l-127 -107z" />
    <glyph glyph-name="n" unicode="n" horiz-adv-x="460" 
d="M245 197l-178 -183c-4 -4 -8.66699 -6 -14 -6c-3.33301 0 -5.66602 0.666992 -6.99902 2c-8.66699 2 -13 7.66699 -13 17v451v3v2v2v2h2v2v3h2v1h3v2h2v2h2h2l2 2h3h2h1h2h3v-2h2h2v-2h2l2 -2l3 -1l315 -409v395c0 7.33301 2 12.666 6 15.999s8.66699 5 14 5
s10.166 -1.66699 14.499 -5s6.5 -8.66602 6.5 -15.999v-456c0 -4 -1.5 -7.83301 -4.5 -11.5s-6.83301 -6.16699 -11.5 -7.5c-1.33301 -1.33301 -3 -2 -5 -2c-8 0 -13.333 3 -16 9zM218 230l-144 187v-338z" />
    <glyph glyph-name="o" unicode="o" horiz-adv-x="469" 
d="M19 217c0 29.333 5.66699 57 17 83s26.666 48.667 45.999 68s42.333 34.666 69 45.999s55 17 85 17c29.333 0 57 -5.66699 83 -17s48.667 -26.666 68 -45.999s34.666 -42 45.999 -68s17 -53.667 17 -83c0 -30 -5.66699 -58.167 -17 -84.5s-26.666 -49.333 -45.999 -69
s-42 -35.167 -68 -46.5s-53.667 -17 -83 -17c-30 0 -58.333 5.66699 -85 17s-49.667 26.833 -69 46.5s-34.666 42.667 -45.999 69s-17 54.5 -17 84.5zM236 389c-24 0 -46.667 -4.5 -68 -13.5s-39.833 -21.167 -55.5 -36.5s-28.167 -33.5 -37.5 -54.5s-14 -43.5 -14 -67.5
s4.66699 -46.667 14 -68s21.833 -39.833 37.5 -55.5s34.167 -28.167 55.5 -37.5s44 -14 68 -14c23.333 0 45.333 4.66699 66 14s38.834 21.833 54.501 37.5s28.167 34.167 37.5 55.5s14 44 14 68s-4.66699 46.5 -14 67.5s-21.833 39.167 -37.5 54.5
s-33.834 27.5 -54.501 36.5s-42.667 13.5 -66 13.5zM108 478c0 5.33301 2 10 6 14s9.66699 6 17 6h207c6 0 11.333 -2 16 -6s7 -8.66699 7 -14s-2.33301 -10.333 -7 -15s-10 -7 -16 -7h-207c-7.33301 0 -13 2.33301 -17 7s-6 9.66699 -6 15z" />
    <glyph glyph-name="p" unicode="p" horiz-adv-x="307" 
d="M53 -1c-5.33301 0 -10.001 1.99902 -14.001 5.99902s-6 8.66699 -6 14v458c0 5.33301 2 10 6 14s8.66699 6 14 6h118c21.333 0 40.833 -4.66699 58.5 -14s32.834 -21.666 45.501 -36.999c1.33301 0 2 -0.666992 2 -2c18 -23.333 27 -51 27 -83
c0 -18 -3.33301 -34.5 -10 -49.5s-16 -28 -28 -39s-26.167 -19.667 -42.5 -26s-33.833 -9.5 -52.5 -9.5h-96v-218c0 -5.33301 -2.33301 -10 -7 -14s-9.66699 -6 -15 -6zM261.999 360.999c0 14.667 -2.33301 28 -7 40l-144 -122h60c26.667 0 48.5 7.83301 65.5 23.5
s25.5 35.167 25.5 58.5zM74.999 302.999l153.999 132c-15.333 12.667 -34.666 19 -57.999 19h-96v-151z" />
    <glyph glyph-name="q" unicode="q" horiz-adv-x="508" 
d="M460 -1c-8.66699 0 -15 2.99805 -19 8.99805l-60 67c-17.333 -13.333 -37.333 -23.666 -60 -30.999s-46.667 -11 -72 -11c-32 0 -61.833 6.16699 -89.5 18.5s-52 29 -73 50s-37.5 45.667 -49.5 74s-18 58.5 -18 90.5c0 34 6.83301 65.5 20.5 94.5s31.5 54.167 53.5 75.5
h1l1 2h2c20 17.333 43 31.333 69 42s53.667 16 83 16c32 0 62 -6 90 -18s52.5 -28.5 73.5 -49.5s37.5 -45.333 49.5 -73s18 -57.5 18 -89.5s-5.66699 -61.833 -17 -89.5s-27.333 -51.834 -48 -72.501l60 -69c3.33301 -5.33301 5 -10.666 5 -15.999
s-2.33301 -9.66602 -7 -12.999c-4 -4.66699 -8.33301 -7 -13 -7zM249 74.998c19.333 0 37.832 3.16504 55.499 9.49805s34.5 14.5 50.5 24.5l-246 279c-15.333 -15.333 -27 -33.666 -35 -54.999s-12 -43.666 -12 -66.999c0 -26.667 4.83301 -51.5 14.5 -74.5
s22.834 -43.167 39.501 -60.5s36.5 -31 59.5 -41s47.5 -15 73.5 -15zM384.999 134.996c16 17.333 28.667 36.999 38 58.999s14 46 14 72c0 25.333 -5 49.333 -15 72s-23.5 42.5 -40.5 59.5s-36.833 30.5 -59.5 40.5s-47 15 -73 15c-20 0 -39.333 -3.16699 -58 -9.5
s-35.667 -15.166 -51 -26.499z" />
    <glyph glyph-name="r" unicode="r" horiz-adv-x="327" 
d="M191 497c16 -2 30.832 -7.00098 44.499 -15.001s25.5 -17.833 35.5 -29.5s18 -25.167 24 -40.5s9 -31.666 9 -48.999c0 -34 -11 -62.667 -33 -86s-50 -36.666 -84 -39.999l95 -209c2.66699 -5.33301 3 -10.333 1 -15s-5.66699 -8.33398 -11 -11.001
c-1.33301 -1.33301 -2.83301 -2 -4.5 -2h-4.5c-3.33301 0 -6.66602 1 -9.99902 3s-5.66602 4.66699 -6.99902 8l-106 226h-67v-217c0 -5.33301 -1.83301 -10 -5.5 -14s-8.16699 -6 -13.5 -6c-6.66699 0 -12 2 -16 6s-6 8.66699 -6 14v239v2v2l2 3v2v2l52 82l-52 116v3
c-1.33301 0 -2 0.666992 -2 2v2v2v2v2v3h2v2v2h2v2l3 2h1l1 2h2v3h2h2h2c2 0 3 0.666992 3 2h2h120c3.33301 0 6.16602 -0.333008 8.49902 -1s4.5 -1 6.5 -1h2zM111.999 394.999l39 63h-67zM120.999 278.999l-13 28l-17 -28h30zM173.999 278.999
c26 0 47.333 7.66797 64 23.001s25 35.666 25 60.999c0 21.333 -6.16699 40.333 -18.5 57s-27.833 27.667 -46.5 33l-64 -103l33 -71h7z" />
    <glyph glyph-name="s" unicode="s" horiz-adv-x="379" 
d="M307 41c-33.333 -27.333 -75.3291 -41.0059 -125.996 -41.0059h-148c-5.33301 0 -9.66602 1.66699 -12.999 5s-5 7.66602 -5 12.999c0 6.66699 1.66699 11.834 5 15.501s7.66602 5.5 12.999 5.5h148c20 0 38.5 2.66699 55.5 8s31.5 12.833 43.5 22.5
s21.5 21.334 28.5 35.001s10.5 28.834 10.5 45.501c0 10.667 -1.5 21.334 -4.5 32.001s-9.33301 20.834 -19 30.501s-23.834 18.834 -42.501 27.501s-43.334 16.334 -74.001 23.001c-3.33301 0 -6 0.333008 -8 1s-4 1 -6 1c-52 11.333 -88.667 26.166 -110 44.499
s-32 43.833 -32 76.5s13 59.334 39 80.001c27.333 19.333 59.666 29 96.999 29h131c9.33301 0 15.666 -2.66699 18.999 -8c2.66699 -8.66699 2 -15.667 -2 -21l-107 -168c19.333 -4.66699 38.5 -10.5 57.5 -17.5s36 -16.167 51 -27.5s27 -25.333 36 -42s13.5 -37 13.5 -61
c0 -44.667 -17 -81 -51 -109zM255.004 455.994h-96.001c-28 0 -51.167 -6.33301 -69.5 -19s-27.5 -29.667 -27.5 -51c0 -8 0.833008 -15.5 2.5 -22.5s5.83398 -13.833 12.501 -20.5s16.667 -13 30 -19s31.333 -12 54 -18z" />
    <glyph glyph-name="t" unicode="t" horiz-adv-x="301" 
d="M173 20c0 -13.333 -7.33301 -20 -22 -20c-5.33301 -0 -10 1.83301 -14 5.5s-6 8.5 -6 14.5v372h-82c-5.33301 0 -10 2.16699 -14 6.5s-6 9.16602 -6 14.499c0 6 2 10.833 6 14.5s8.66699 5.5 14 5.5h82v25h-100c-5.33301 0 -10.333 2 -15 6s-7 9.33301 -7 16
c0 5.33301 2.33301 10 7 14s9.66699 6 15 6h241c6 0 10.833 -2 14.5 -6s5.5 -8.66699 5.5 -14c0 -14.667 -6.66699 -22 -20 -22h-99v-25h81c14.667 0 22 -6.66699 22 -20c0 -5.33301 -1.83301 -10.166 -5.5 -14.499s-9.16699 -6.5 -16.5 -6.5h-81v-372v0z" />
    <glyph glyph-name="u" unicode="u" horiz-adv-x="454" 
d="M425 195c0 -27.333 -5.33203 -52.666 -15.999 -75.999s-25 -43.833 -43 -61.5s-39 -31.5 -63 -41.5s-49.333 -15 -76 -15c-34 0 -65.333 7.5 -94 22.5s-52.667 35.5 -72 61.5c-11.333 16 -19.5 33.5 -24.5 52.5s-7.5 38.167 -7.5 57.5v282c0 14.667 6.66699 22 20 22
c5.33301 0 10.166 -2 14.499 -6s6.5 -9.33301 6.5 -16v-282c0 -14 1.66699 -27.5 5 -40.5s9 -25.5 17 -37.5l294 375c6.66699 6.66699 14.667 9 24 7c4.66699 -1.33301 8 -3.83301 10 -7.5s3 -7.83398 3 -12.501zM227.001 42c21.333 0 41.5 4.00098 60.5 12.001
s35.667 19 50 33s25.666 30.167 33.999 48.5s12.5 38.166 12.5 59.499l-2 226l-265 -336c28.667 -28.667 65.334 -43 110.001 -43z" />
    <glyph glyph-name="v" unicode="v" horiz-adv-x="425" 
d="M391 500c3.33301 0 6.66797 -0.666992 10.001 -2s6 -3.66602 8 -6.99902c1.33301 -3.33301 2.33301 -6.5 3 -9.5s0.333984 -6.16699 -0.999023 -9.5l-180 -457c-1.33301 -5.33301 -3.83301 -9.33301 -7.5 -12s-7.83398 -4 -12.501 -4c-8.66699 0 -15 5.33301 -19 16
l-178 457c-2 6.66699 -1.33301 13 2 19c2 3.33301 4.66699 5.66602 8 6.99902s6.66602 2 9.99902 2h357zM361.002 458h-297l147 -381z" />
    <glyph glyph-name="w" unicode="w" horiz-adv-x="466" 
d="M412 502c5.33301 0 10 -1.83398 14 -5.50098s6 -8.83398 6 -15.501v-461c0 -3.33301 -1 -6.83301 -3 -10.5s-4.66699 -6.16699 -8 -7.5c-1.33301 -1.33301 -4.33301 -2 -9 -2c-2 0 -4 0.333008 -6 1s-4.33301 1.66699 -7 3l-165 144l-168 -144
c-4 -2.66699 -8.33301 -4 -13 -4s-7.66699 0.666992 -9 2c-3.33301 1.33301 -6 3.83301 -8 7.5s-3 7.16699 -3 10.5v461c0 6.66699 2 11.834 6 15.501s8.66699 5.5 14 5.5s10.333 -1.83301 15 -5.5s7 -8.83398 7 -15.501v-415l125 108l-55 49
c-4.66699 4.66699 -7.33398 9.83398 -8.00098 15.501s1.33301 10.5 6 14.5c3.33301 4.66699 7.83301 7.16699 13.5 7.5s10.834 -1.16699 15.501 -4.5l62 -53l59 50c4.66699 4.66699 10 6.66699 16 6s11 -3.33398 15 -8.00098c3.33301 -4.66699 5 -9.66699 5 -15
s-2.33301 -9.66602 -7 -12.999l-57 -49l125 -108v415c0 6.66699 2.33301 11.834 7 15.501s9.66699 5.5 15 5.5z" />
    <glyph glyph-name="x" unicode="x" horiz-adv-x="456" 
d="M422 33c3.33301 -4.66699 4.66602 -9.83398 3.99902 -15.501s-3.33398 -10.167 -8.00098 -13.5c-1.33301 -2 -3.33301 -3.16699 -6 -3.5s-5 -0.5 -7 -0.5s-4.5 0.5 -7.5 1.5s-5.5 2.83301 -7.5 5.5l-159 206l-156 -204c-4 -6 -10 -9 -18 -9c-2 0 -4 0.166992 -6 0.5
s-4.33301 1.5 -7 3.5c-4 3.33301 -6.5 7.83301 -7.5 13.5s0.166992 10.834 3.5 15.501l163 213l-169 219c-3.33301 4.66699 -4.66602 9.66699 -3.99902 15s3.33398 9.66602 8.00098 12.999s9.66699 4.66602 15 3.99902s9.66602 -3.33398 12.999 -8.00098l163 -209l161 209
c3.33301 4.66699 7.66602 7.33398 12.999 8.00098s10.333 -0.666016 15 -3.99902s7.33398 -7.66602 8.00098 -12.999s-0.666016 -10.333 -3.99902 -15l-167 -219z" />
    <glyph glyph-name="y" unicode="y" horiz-adv-x="427" 
d="M385 497c4.66699 2 9.33008 2.16504 13.9971 0.498047s8 -4.16699 10 -7.5c3.33301 -4.66699 4.83301 -9 4.5 -13s-1.83301 -8.33301 -4.5 -13l-174 -219v-226c0 -5.33301 -2 -10 -6 -14s-8.66699 -6 -14 -6c-7.33301 0 -13 2 -17 6s-6 8.66699 -6 14v226l-90 115h-2
l-82 104c-3.33301 4.66699 -4.66602 9.83398 -3.99902 15.501s3.33398 10.834 8.00098 15.501c4.66699 3.33301 9.83398 4.5 15.501 3.5s10.167 -3.83301 13.5 -8.5l73 -90zM329.996 430.998l-177 -67l62 -77z" />
    <glyph glyph-name="z" unicode="z" horiz-adv-x="436" 
d="M394 41c5.33301 0 9.83496 -2.33203 13.502 -6.99902s5.5 -9.66699 5.5 -15s-1.83301 -9.83301 -5.5 -13.5s-8.16699 -5.5 -13.5 -5.5h-177h-174c-10 0 -16 3.66699 -18 11c-2 3.33301 -3 6.83301 -3 10.5s1.66699 7.16699 5 10.5l171 223v203h-155
c-5.33301 0 -10 1.83301 -14 5.5s-6 8.16699 -6 13.5c0 6.66699 2 12 6 16s8.66699 6 14 6h351c3.33301 0 6.66602 -1 9.99902 -3s5.66602 -5.33301 6.99902 -10c2 -3.33301 2.66699 -6.83301 2 -10.5s-2 -6.83398 -4 -9.50098l-170 -225v-200h155zM239.002 309.001l111 149
h-111v-149zM198.002 187.001l-113 -146h113v146z" />
    </font>
</defs>
</svg>
